{"glyphs":{"0":{"ha":710,"x_min":0,"x_max":0,"o":"m 354 943 b 53 451 100 943 53 692 b 354 -17 53 221 111 -17 b 657 475 611 -17 657 238 b 354 943 657 704 599 943 z m 354 829 b 499 463 474 829 499 669 b 354 97 499 243 469 97 b 211 463 235 97 211 257 b 354 829 211 660 232 829 z "},"1":{"ha":710,"x_min":0,"x_max":0,"o":"m 608 114 l 458 114 l 458 936 l 346 936 b 144 760 289 860 225 806 l 144 617 b 308 749 243 672 281 715 l 308 114 l 149 114 l 149 0 l 608 0 z "},"2":{"ha":710,"x_min":0,"x_max":0,"o":"m 183 629 b 332 817 189 674 207 817 b 463 661 431 817 463 731 b 399 486 463 588 426 524 b 44 133 303 354 126 203 l 44 0 l 619 0 l 626 135 l 208 135 b 621 671 560 394 621 536 b 343 943 621 807 539 943 b 44 658 101 943 58 728 z "},"3":{"ha":710,"x_min":0,"x_max":0,"o":"m 182 688 b 328 825 193 731 219 825 b 456 681 417 825 456 758 b 407 564 456 640 446 593 b 286 538 372 538 336 538 l 228 538 l 228 424 l 286 424 b 474 267 343 424 474 422 b 325 104 474 146 397 104 b 160 263 193 104 168 224 l 28 231 b 96 76 36 186 47 129 b 332 -17 167 -4 275 -17 b 635 260 499 -17 635 75 b 592 406 635 297 628 357 b 465 488 549 464 497 478 b 610 694 518 511 610 554 b 342 943 610 861 493 943 b 53 718 117 943 68 772 z "},"4":{"ha":710,"x_min":0,"x_max":0,"o":"m 376 943 l 42 333 l 42 221 l 403 221 l 403 0 l 551 0 l 551 221 l 667 221 l 667 338 l 551 338 l 551 943 z m 164 333 l 410 807 l 410 333 z "},"5":{"ha":710,"x_min":0,"x_max":0,"o":"m 124 926 l 94 418 l 210 393 b 354 494 225 428 256 494 b 503 307 471 494 503 397 b 461 158 503 263 496 203 b 350 110 443 135 410 110 b 194 254 231 110 208 200 l 57 221 b 136 63 67 174 78 119 b 347 -17 199 0 279 -17 b 651 313 503 -17 651 76 b 397 621 651 526 533 621 b 225 535 294 621 253 569 l 239 792 l 590 792 l 604 926 z "},"6":{"ha":710,"x_min":0,"x_max":0,"o":"m 658 718 b 393 943 644 774 600 943 b 244 900 350 943 297 935 b 75 442 92 799 75 568 b 104 208 75 374 82 292 b 382 -17 115 168 176 -17 b 667 294 551 -17 667 103 b 414 597 667 499 538 597 b 217 460 282 597 238 504 b 390 824 222 631 243 824 b 532 678 496 824 519 726 z m 383 478 b 518 292 518 478 518 319 b 381 101 518 239 511 101 b 233 290 279 101 233 194 b 383 478 233 361 263 478 z "},"7":{"ha":710,"x_min":0,"x_max":0,"o":"m 78 792 l 486 792 b 208 0 414 696 210 426 l 371 0 b 421 389 371 68 369 203 b 624 818 488 633 571 747 l 624 926 l 89 926 z "},"8":{"ha":710,"x_min":0,"x_max":0,"o":"m 490 500 b 635 707 538 525 635 576 b 592 846 635 747 625 799 b 363 943 533 925 436 943 b 78 689 147 943 78 799 b 218 471 78 558 167 503 b 47 236 158 442 47 386 b 125 51 47 151 82 89 b 347 -17 196 -10 297 -17 b 663 254 572 -17 663 125 b 490 500 663 414 538 476 z m 375 549 b 225 710 304 576 225 617 b 363 836 225 788 285 836 b 501 704 456 836 501 771 b 375 549 501 617 432 579 z m 328 414 b 515 231 419 376 515 335 b 353 93 515 139 436 93 b 185 244 265 93 185 142 b 328 414 185 349 274 389 z "},"9":{"ha":710,"x_min":0,"x_max":0,"o":"m 61 186 b 314 -17 86 111 129 -17 b 633 497 561 -17 633 221 b 336 943 633 715 579 943 b 44 632 140 943 44 794 b 300 328 44 458 150 328 b 489 450 421 328 464 406 b 324 101 485 303 469 101 b 193 225 226 101 206 176 z m 335 824 b 476 639 439 824 476 721 b 333 454 476 565 444 454 b 193 636 239 454 193 533 b 335 824 193 768 261 824 z "}," ":{"ha":347,"x_min":0,"x_max":0,"o":""},"!":{"ha":474,"x_min":0,"x_max":0,"o":"m 143 926 l 190 250 l 283 250 l 331 926 z m 160 171 l 160 0 l 314 0 l 314 171 z "},"\"":{"ha":521,"x_min":0,"x_max":0,"o":"m 226 926 l 83 926 l 106 546 l 204 546 z m 439 926 l 296 926 l 318 546 l 417 546 z "},"#":{"ha":710,"x_min":0,"x_max":0,"o":"m 254 926 l 208 657 l 75 657 l 60 563 l 193 563 l 163 383 l 29 383 l 14 289 l 147 289 l 99 0 l 199 0 l 247 289 l 401 289 l 353 0 l 453 0 l 501 289 l 635 289 l 650 383 l 517 383 l 547 563 l 681 563 l 696 657 l 563 657 l 607 926 l 507 926 l 463 657 l 308 657 l 354 926 z m 447 563 l 417 383 l 263 383 l 293 563 z "},"$":{"ha":710,"x_min":0,"x_max":0,"o":"m 401 1000 l 317 1000 l 317 908 b 194 864 285 904 242 896 b 97 664 136 824 97 747 b 321 417 97 483 260 435 l 321 140 b 185 290 235 161 204 214 l 64 250 b 317 26 94 142 144 49 l 317 -92 l 401 -92 l 401 26 b 553 81 446 32 497 38 b 647 286 599 117 647 182 b 397 544 647 471 494 517 l 397 800 b 518 676 458 788 490 754 l 628 722 b 401 908 594 826 542 892 z m 321 568 b 228 682 293 576 228 599 b 321 797 228 771 294 790 z m 397 394 b 515 267 435 385 515 364 b 397 140 515 190 469 151 z "},"%":{"ha":946,"x_min":0,"x_max":0,"o":"m 242 935 b 58 696 133 935 58 851 b 242 456 58 533 138 456 b 424 696 342 456 424 529 b 242 935 424 849 351 935 z m 242 850 b 315 696 289 850 315 810 b 242 540 315 588 293 540 b 167 696 201 540 167 564 b 242 850 167 831 204 850 z m 706 471 b 524 231 601 471 524 393 b 706 -8 524 76 596 -8 b 888 231 811 -8 888 74 b 706 471 888 388 813 471 z m 706 386 b 779 231 753 386 779 343 b 706 76 779 107 749 76 b 643 128 665 76 651 104 b 631 229 633 157 631 194 b 706 386 631 356 663 386 z m 654 926 l 203 0 l 294 0 l 746 926 z "},"&":{"ha":875,"x_min":0,"x_max":0,"o":"m 700 517 b 618 274 672 363 638 304 l 460 501 b 629 742 504 526 629 600 b 421 943 629 836 571 943 b 203 743 279 943 203 836 b 283 529 203 658 256 574 b 82 256 158 471 82 386 b 361 -17 82 128 163 -17 b 597 79 486 -17 554 42 b 754 -12 632 38 674 -12 b 831 0 786 -12 808 -6 l 831 119 b 788 114 815 117 801 114 b 690 176 742 114 713 149 b 814 492 750 265 788 350 z m 338 746 b 424 839 338 807 379 839 b 507 743 474 839 507 800 b 400 585 507 675 458 619 b 338 746 375 622 338 689 z m 532 168 b 381 99 504 140 464 99 b 229 263 285 99 229 171 b 343 443 229 371 306 419 z "},"’":{"ha":307,"x_min":0,"x_max":0,"o":"m 88 754 l 153 754 l 74 585 l 142 585 l 235 758 l 235 926 l 88 926 z "},"(":{"ha":450,"x_min":0,"x_max":0,"o":"m 261 926 b 74 347 214 860 74 657 b 261 -232 74 132 138 -56 l 374 -232 b 215 347 240 -12 215 214 b 374 926 215 551 268 751 z "},")":{"ha":450,"x_min":0,"x_max":0,"o":"m 189 -232 b 376 347 236 -164 376 38 b 304 718 376 469 353 597 b 189 926 264 818 219 882 l 76 926 b 235 347 182 751 235 551 b 76 -232 235 143 182 -57 z "},"*":{"ha":710,"x_min":0,"x_max":0,"o":"m 304 926 l 319 743 l 167 844 l 119 751 l 279 681 l 119 608 l 167 517 l 319 618 l 304 435 l 406 435 l 390 618 l 543 517 l 590 608 l 431 681 l 590 751 l 543 844 l 390 743 l 406 926 z "},"+":{"ha":710,"x_min":0,"x_max":0,"o":"m 414 519 l 414 747 l 296 747 l 296 519 l 71 519 l 71 407 l 296 407 l 296 179 l 414 179 l 414 407 l 639 407 l 639 519 z "},",":{"ha":332,"x_min":0,"x_max":0,"o":"m 96 175 l 96 0 l 167 0 l 82 -196 l 150 -196 l 250 8 l 250 175 z "},"-":{"ha":403,"x_min":0,"x_max":0,"o":"m 54 404 l 54 290 l 347 290 l 347 404 z "},".":{"ha":332,"x_min":0,"x_max":0,"o":"m 89 175 l 89 0 l 243 0 l 243 175 z "},"/":{"ha":663,"x_min":0,"x_max":0,"o":"m 490 926 l -21 -232 l 85 -232 l 596 926 z "},":":{"ha":332,"x_min":0,"x_max":0,"o":"m 89 175 l 89 0 l 243 0 l 243 175 z m 89 685 l 89 510 l 243 510 l 243 685 z "},";":{"ha":332,"x_min":0,"x_max":0,"o":"m 96 175 l 96 0 l 167 0 l 82 -196 l 150 -196 l 250 8 l 250 175 z m 96 685 l 96 510 l 250 510 l 250 685 z "},"<":{"ha":710,"x_min":0,"x_max":0,"o":"m 656 817 l 54 524 l 54 403 l 656 108 l 656 249 l 204 463 l 656 678 z "},"=":{"ha":710,"x_min":0,"x_max":0,"o":"m 639 501 l 639 614 l 71 614 l 71 501 z m 639 311 l 639 424 l 71 424 l 71 311 z "},">":{"ha":710,"x_min":0,"x_max":0,"o":"m 54 108 l 656 403 l 656 522 l 54 817 l 54 678 l 506 464 l 54 249 z "},"?":{"ha":686,"x_min":0,"x_max":0,"o":"m 185 631 b 325 822 189 688 200 822 b 444 693 393 822 444 782 b 361 526 444 604 397 558 b 244 247 247 429 247 422 l 372 247 b 460 439 369 347 372 367 b 599 690 528 496 599 558 b 333 943 599 833 508 943 b 118 849 254 943 174 921 b 53 656 64 778 57 699 z m 232 167 l 232 0 l 383 0 l 383 167 z "},"@":{"ha":828,"x_min":0,"x_max":0,"o":"m 540 704 l 529 629 b 419 714 518 657 494 714 b 222 410 297 714 222 569 b 372 186 222 267 286 186 b 493 268 450 186 478 240 b 593 189 504 231 515 189 b 818 533 714 189 818 321 b 442 950 818 771 688 950 b 10 453 167 950 10 726 b 451 -22 10 158 190 -22 b 733 58 589 -22 686 32 l 701 132 b 456 60 658 106 581 60 b 111 457 228 60 111 239 b 439 868 111 676 229 868 b 724 522 590 868 724 768 b 607 278 724 374 669 278 b 572 325 586 278 572 285 b 581 417 572 353 579 407 l 621 704 z m 425 613 b 489 494 482 613 489 535 b 393 288 489 485 488 288 b 329 413 356 288 329 333 b 425 613 329 500 357 613 z "},"A":{"ha":686,"x_min":0,"x_max":0,"o":"m 263 926 l -6 0 l 142 0 l 199 232 l 468 232 l 526 0 l 682 0 l 435 926 z m 228 353 l 333 778 l 438 353 z "},"B":{"ha":757,"x_min":0,"x_max":0,"o":"m 89 926 l 89 0 l 372 0 b 583 44 451 0 511 3 b 689 258 656 85 689 176 b 625 432 689 343 656 399 b 522 488 590 465 557 476 b 660 690 565 504 660 542 b 607 854 660 735 650 800 b 368 926 550 926 457 926 z m 239 808 l 350 808 b 503 678 397 808 503 808 b 336 542 503 546 401 542 l 239 542 z m 239 424 l 350 424 b 532 272 399 424 532 424 b 363 122 532 181 485 122 l 239 122 z "},"C":{"ha":733,"x_min":0,"x_max":0,"o":"m 554 311 b 399 110 532 176 493 110 b 221 456 251 110 221 289 b 399 817 221 603 239 817 b 554 607 526 817 544 685 l 697 626 b 396 943 686 706 654 943 b 58 460 88 943 58 607 b 393 -17 58 307 92 -17 b 696 292 650 -17 685 217 z "},"D":{"ha":781,"x_min":0,"x_max":0,"o":"m 90 926 l 90 0 l 310 0 b 547 60 394 0 482 14 b 722 471 649 131 722 274 b 614 813 722 607 689 725 b 299 926 525 913 389 926 z m 307 804 b 560 463 504 804 560 642 b 468 178 560 399 554 260 b 307 122 443 151 393 122 l 243 122 l 243 804 z "},"E":{"ha":639,"x_min":0,"x_max":0,"o":"m 89 926 l 89 0 l 625 0 l 625 125 l 242 125 l 242 415 l 538 415 l 538 538 l 242 538 l 242 804 l 618 804 l 618 926 z "},"F":{"ha":592,"x_min":0,"x_max":0,"o":"m 89 926 l 89 0 l 242 0 l 242 404 l 531 404 l 531 526 l 242 526 l 242 804 l 603 804 l 603 926 z "},"G":{"ha":781,"x_min":0,"x_max":0,"o":"m 404 475 l 404 353 l 569 353 b 410 110 569 292 569 110 b 221 464 246 110 221 307 b 407 817 221 667 264 817 b 569 626 526 817 550 713 l 708 661 b 406 943 681 804 619 943 b 58 450 97 943 58 619 b 389 -17 58 254 126 -17 b 611 111 535 -17 586 68 l 631 -7 l 713 -7 l 713 475 z "},"H":{"ha":757,"x_min":0,"x_max":0,"o":"m 89 926 l 89 0 l 242 0 l 242 413 l 515 413 l 515 0 l 668 0 l 668 926 l 515 926 l 515 542 l 242 542 l 242 926 z "},"I":{"ha":332,"x_min":0,"x_max":0,"o":"m 89 926 l 89 0 l 242 0 l 242 926 z "},"J":{"ha":426,"x_min":0,"x_max":0,"o":"m 188 926 l 188 350 b 68 114 188 185 185 114 b -22 126 28 114 0 121 l -22 0 b 97 -17 28 -11 54 -17 b 340 350 340 -17 340 164 l 340 926 z "},"K":{"ha":710,"x_min":0,"x_max":0,"o":"m 89 926 l 89 0 l 242 0 l 242 304 l 351 458 l 558 0 l 724 0 l 444 586 l 683 926 l 521 926 l 242 485 l 242 926 z "},"L":{"ha":568,"x_min":0,"x_max":0,"o":"m 89 926 l 89 0 l 569 0 l 569 129 l 242 129 l 242 926 z "},"M":{"ha":993,"x_min":0,"x_max":0,"o":"m 86 926 l 86 0 l 214 0 l 214 792 l 429 0 l 540 0 l 760 790 l 760 0 l 904 0 l 904 926 l 686 926 l 497 258 l 313 926 z "},"N":{"ha":781,"x_min":0,"x_max":0,"o":"m 83 926 l 83 0 l 211 0 l 211 742 l 554 0 l 697 0 l 697 926 l 569 926 l 569 258 l 264 926 z "},"O":{"ha":781,"x_min":0,"x_max":0,"o":"m 392 943 b 58 463 114 943 58 675 b 393 -17 58 247 115 -17 b 724 463 681 -17 724 272 b 392 943 724 679 668 943 z m 392 817 b 525 722 472 817 504 768 b 563 463 558 644 563 526 b 525 204 563 413 560 286 b 393 110 504 157 471 110 b 257 204 319 110 283 144 b 219 463 224 283 219 407 b 257 722 219 519 222 643 b 392 817 279 772 313 817 z "},"P":{"ha":686,"x_min":0,"x_max":0,"o":"m 89 926 l 89 0 l 242 0 l 242 361 l 321 361 b 553 410 381 361 483 361 b 658 643 639 468 658 578 b 583 850 658 710 640 790 b 318 926 517 921 419 926 z m 318 808 b 465 760 385 808 431 808 b 497 646 494 718 497 674 b 318 483 497 483 389 483 l 242 483 l 242 808 z "},"Q":{"ha":781,"x_min":0,"x_max":0,"o":"m 672 -81 b 601 -93 654 -87 633 -93 b 511 7 521 -93 511 -51 b 697 243 569 35 660 78 b 722 463 714 315 722 389 b 392 943 722 639 686 943 b 58 463 117 943 58 681 b 392 -15 58 222 125 -15 b 417 -131 393 -53 393 -89 b 582 -214 440 -175 483 -214 b 672 -197 625 -214 647 -207 z m 390 110 b 219 463 279 110 219 204 b 257 722 219 496 219 636 b 390 817 278 771 313 817 b 524 721 471 817 503 769 b 561 463 558 642 561 510 b 390 110 561 136 457 110 z "},"R":{"ha":733,"x_min":0,"x_max":0,"o":"m 89 926 l 89 0 l 242 0 l 242 388 l 386 388 l 532 0 l 697 0 l 521 419 b 664 663 561 440 664 494 b 567 879 664 772 617 843 b 368 926 518 914 456 926 z m 361 808 b 513 664 393 808 513 808 b 360 506 513 572 469 506 l 242 506 l 242 808 z "},"S":{"ha":710,"x_min":0,"x_max":0,"o":"m 640 719 b 354 943 621 783 572 943 b 69 682 158 943 69 808 b 153 493 69 596 110 531 b 349 394 203 450 246 433 b 507 243 432 364 507 331 b 357 110 507 200 485 110 b 168 281 206 110 178 239 l 32 242 b 353 -17 47 179 93 -17 b 664 264 569 -17 664 131 b 404 546 664 447 511 506 b 219 700 294 589 219 617 b 346 817 219 742 247 817 b 510 674 442 817 481 760 z "},"T":{"ha":521,"x_min":0,"x_max":0,"o":"m -22 926 l -22 796 l 182 796 l 182 0 l 335 0 l 335 796 l 542 796 l 542 926 z "},"U":{"ha":757,"x_min":0,"x_max":0,"o":"m 82 926 l 82 351 b 378 -17 82 188 86 -17 b 579 40 486 -17 543 14 b 675 361 672 110 675 226 l 675 926 l 538 926 l 538 354 b 386 110 538 221 538 110 b 232 351 232 110 232 228 l 232 926 z "},"V":{"ha":639,"x_min":0,"x_max":0,"o":"m -6 926 l 233 0 l 400 -3 l 643 926 l 508 926 l 332 188 l 156 926 z "},"W":{"ha":969,"x_min":0,"x_max":0,"o":"m 3 926 l 203 -3 l 343 -3 l 488 678 l 633 -3 l 772 -3 l 967 926 l 838 926 l 706 232 l 563 926 l 429 926 l 285 232 l 160 926 z "},"X":{"ha":615,"x_min":0,"x_max":0,"o":"m 11 926 l 229 479 l -19 0 l 126 0 l 304 354 l 463 0 l 633 0 l 390 506 l 606 926 l 463 926 l 314 631 l 182 926 z "},"Y":{"ha":568,"x_min":0,"x_max":0,"o":"m -43 926 l 203 392 l 203 0 l 356 0 l 356 392 l 613 926 l 465 926 l 293 540 l 124 926 z "},"Z":{"ha":592,"x_min":0,"x_max":0,"o":"m 26 926 l 26 801 l 407 801 l 1 118 l 1 0 l 592 0 l 592 129 l 171 129 l 582 819 l 582 926 z "},"[":{"ha":450,"x_min":0,"x_max":0,"o":"m 110 926 l 110 -232 l 350 -232 l 350 -154 l 242 -154 l 242 849 l 350 849 l 350 926 z "},"\\":{"ha":663,"x_min":0,"x_max":0,"o":"m 172 926 l 67 926 l 578 -232 l 683 -232 z "},"]":{"ha":450,"x_min":0,"x_max":0,"o":"m 340 -232 l 340 926 l 100 926 l 100 849 l 208 849 l 208 -154 l 100 -154 l 100 -232 z "},"^":{"ha":710,"x_min":0,"x_max":0,"o":"m 689 439 l 426 936 l 283 936 l 21 439 l 154 439 l 354 825 l 556 439 z "},"_":{"ha":694,"x_min":0,"x_max":0,"o":"m 0 -174 l 694 -174 l 694 -104 l 0 -104 z "},"‘":{"ha":307,"x_min":0,"x_max":0,"o":"m 221 600 l 221 772 l 156 772 l 235 942 l 167 942 l 74 768 l 74 600 z "},"a":{"ha":639,"x_min":0,"x_max":0,"o":"m 210 490 b 321 597 215 519 231 597 b 422 450 422 597 422 500 l 422 422 b 190 394 324 425 249 414 b 49 181 108 367 49 290 b 240 -17 49 54 129 -17 b 433 114 363 -17 407 65 b 443 0 433 50 436 33 l 575 0 b 564 190 564 47 564 132 l 564 422 b 521 628 564 496 564 581 b 332 701 489 665 431 701 b 74 508 268 701 106 685 z m 422 300 b 288 88 422 149 347 88 b 196 190 240 88 196 108 b 381 336 196 254 217 336 b 422 335 390 336 400 336 z "},"b":{"ha":663,"x_min":0,"x_max":0,"o":"m 82 926 l 82 0 l 163 0 b 193 93 175 49 181 64 b 361 -14 215 47 246 -14 b 478 14 386 -14 432 -11 b 614 350 603 82 614 275 b 382 697 614 490 572 697 b 222 607 288 697 247 642 l 222 926 z m 222 418 b 267 556 222 450 222 503 b 346 593 296 590 329 593 b 464 353 443 593 464 493 b 343 93 464 178 433 93 b 222 290 222 93 222 246 z "},"c":{"ha":568,"x_min":0,"x_max":0,"o":"m 557 454 b 317 701 547 528 521 701 b 49 340 93 701 49 500 b 307 -17 49 196 85 -17 b 557 236 522 -17 546 151 l 421 249 b 318 100 415 190 406 100 b 197 328 197 100 197 267 b 318 589 197 493 221 589 b 421 440 397 589 411 521 z "},"d":{"ha":663,"x_min":0,"x_max":0,"o":"m 440 926 l 440 606 b 283 697 424 636 390 697 b 49 339 147 697 49 574 b 278 -12 49 207 85 -12 b 450 104 397 -12 432 64 l 450 0 l 581 0 l 581 926 z m 440 285 b 411 149 440 210 429 176 b 318 94 390 117 358 94 b 199 351 211 94 199 235 b 317 593 199 461 213 593 b 411 536 365 593 396 558 b 440 403 440 492 440 447 z "},"e":{"ha":615,"x_min":0,"x_max":0,"o":"m 581 321 b 531 582 579 404 578 489 b 324 701 503 636 435 701 b 50 332 171 701 50 585 b 322 -17 50 153 119 -17 b 575 200 524 -17 563 149 l 447 218 b 326 90 436 169 418 90 b 194 321 194 90 194 244 z m 197 417 b 319 597 204 510 233 597 b 425 514 347 597 403 583 b 438 417 438 474 438 443 z "},"f":{"ha":356,"x_min":0,"x_max":0,"o":"m 242 685 b 333 838 242 792 243 838 b 386 832 357 838 374 835 l 386 944 b 303 953 364 949 343 953 b 104 685 108 953 107 811 l 14 685 l 14 571 l 104 571 l 104 0 l 242 0 l 242 571 l 365 571 l 365 685 z "},"g":{"ha":615,"x_min":0,"x_max":0,"o":"m 617 794 b 572 799 603 796 590 799 b 446 672 468 799 456 725 b 315 701 417 685 381 701 b 75 476 175 701 75 613 b 164 301 75 364 131 325 b 63 165 133 286 63 250 b 138 51 63 96 111 68 b 38 -81 107 40 38 15 b 314 -253 38 -235 217 -253 b 625 -40 440 -253 625 -222 b 358 144 625 129 492 136 b 185 204 219 151 185 153 b 236 265 185 243 215 256 b 324 253 260 258 285 253 b 561 472 486 253 561 365 b 508 619 561 528 543 576 b 583 694 519 676 543 694 b 615 690 594 694 603 693 z m 322 608 b 415 474 410 608 415 506 b 318 342 415 457 415 342 b 221 474 221 342 221 453 b 322 608 221 532 235 608 z m 225 29 b 411 19 254 28 385 22 b 493 -60 443 17 493 3 b 331 -154 493 -144 390 -154 b 165 -58 226 -154 165 -132 b 225 29 165 -3 206 19 z "},"h":{"ha":639,"x_min":0,"x_max":0,"o":"m 83 926 l 83 0 l 225 0 l 225 392 b 333 588 225 472 236 588 b 418 432 418 588 418 510 l 418 0 l 560 0 l 560 432 b 536 619 560 501 560 574 b 388 701 499 692 426 701 b 225 593 278 701 246 636 l 225 926 z "},"i":{"ha":308,"x_min":0,"x_max":0,"o":"m 83 685 l 83 0 l 225 0 l 225 685 z m 228 778 l 228 928 l 79 928 l 79 778 z "},"j":{"ha":308,"x_min":0,"x_max":0,"o":"m 86 685 l 86 28 b 15 -125 86 -87 86 -125 b -35 -118 -6 -125 -21 -122 l -35 -236 b 51 -246 -10 -240 15 -246 b 228 25 228 -246 228 -112 l 228 685 z m 231 778 l 231 928 l 83 928 l 83 778 z "},"k":{"ha":592,"x_min":0,"x_max":0,"o":"m 83 926 l 83 0 l 225 0 l 225 218 l 317 343 l 453 0 l 606 0 l 408 449 l 586 685 l 446 685 l 225 379 l 225 926 z "},"l":{"ha":308,"x_min":0,"x_max":0,"o":"m 83 926 l 83 0 l 225 0 l 225 926 z "},"m":{"ha":969,"x_min":0,"x_max":0,"o":"m 83 0 l 225 0 l 225 399 b 335 588 225 469 225 588 b 403 551 350 588 385 585 b 417 417 417 528 417 517 l 417 0 l 558 0 l 558 401 b 667 588 558 518 588 588 b 750 422 750 588 750 514 l 750 0 l 892 0 l 892 433 b 863 629 892 503 890 585 b 714 701 825 690 754 701 b 540 574 593 701 557 614 b 383 701 529 617 510 701 b 214 581 271 701 238 631 l 214 685 l 83 685 z "},"n":{"ha":639,"x_min":0,"x_max":0,"o":"m 83 0 l 225 0 l 225 383 b 336 588 225 454 225 588 b 418 433 418 588 418 522 l 418 0 l 560 0 l 560 442 b 536 617 560 510 558 574 b 383 701 499 690 428 701 b 214 579 265 701 231 617 l 214 685 l 83 685 z "},"o":{"ha":639,"x_min":0,"x_max":0,"o":"m 321 701 b 50 343 96 701 50 508 b 318 -17 50 165 106 -17 b 589 350 551 -17 589 190 b 321 701 589 517 535 701 z m 319 594 b 439 343 400 594 439 519 b 319 90 439 160 399 90 b 200 342 240 90 200 163 b 319 594 200 508 233 594 z "},"p":{"ha":663,"x_min":0,"x_max":0,"o":"m 82 685 l 82 -232 l 222 -232 l 222 71 b 376 -12 249 35 283 -12 b 519 44 421 -12 476 -1 b 614 353 604 133 614 285 b 382 697 614 569 521 697 b 213 572 272 697 233 615 l 213 685 z m 222 400 b 260 546 222 449 222 492 b 344 593 286 583 313 593 b 464 349 442 593 464 475 b 343 94 464 190 433 94 b 249 147 307 94 274 110 b 222 286 222 189 222 232 z "},"q":{"ha":663,"x_min":0,"x_max":0,"o":"m 504 690 b 460 583 485 633 476 617 b 292 697 439 624 400 697 b 183 668 256 697 219 689 b 49 331 76 606 49 465 b 275 -12 49 117 136 -12 b 436 88 375 -12 414 53 l 436 -232 l 578 -232 l 578 531 b 581 690 578 565 578 631 z m 436 314 b 315 94 436 135 358 94 b 199 344 206 94 199 268 b 317 593 199 489 222 593 b 436 403 367 593 436 546 z "},"r":{"ha":379,"x_min":0,"x_max":0,"o":"m 83 685 l 83 0 l 225 0 l 225 349 b 404 550 225 454 258 565 l 404 697 b 379 700 397 699 389 700 b 208 532 265 700 222 574 l 208 685 z "},"s":{"ha":544,"x_min":0,"x_max":0,"o":"m 496 525 b 274 701 483 571 446 701 b 46 490 129 701 46 599 b 261 282 46 350 167 313 b 382 178 319 264 382 244 b 275 88 382 153 368 88 b 143 206 165 88 149 174 l 22 182 b 269 -17 32 132 58 -17 b 521 200 442 -17 521 94 b 318 406 521 339 400 379 b 181 513 224 436 181 450 b 269 597 181 557 211 597 b 385 494 351 597 375 525 z "},"t":{"ha":379,"x_min":0,"x_max":0,"o":"m 357 685 l 226 685 l 226 875 l 99 864 l 92 685 l -1 685 l -1 571 l 88 571 l 88 258 b 274 -17 88 108 88 -17 b 379 -4 319 -17 351 -10 l 379 107 b 321 103 363 106 346 103 b 226 268 226 103 226 149 l 226 571 l 357 571 z "},"u":{"ha":639,"x_min":0,"x_max":0,"o":"m 79 685 l 79 247 b 251 -17 79 133 79 -17 b 425 103 365 -17 400 53 l 425 0 l 556 0 l 556 685 l 414 685 l 414 356 b 300 97 414 229 414 97 b 221 250 221 97 221 154 l 221 685 z "},"v":{"ha":497,"x_min":0,"x_max":0,"o":"m -7 685 l 189 0 l 314 0 l 507 685 l 385 685 l 260 193 l 131 685 z "},"w":{"ha":781,"x_min":0,"x_max":0,"o":"m -1 685 l 171 0 l 290 0 l 389 475 l 493 0 l 613 0 l 783 685 l 668 685 l 560 211 l 463 685 l 338 685 l 239 214 l 139 685 z "},"x":{"ha":497,"x_min":0,"x_max":0,"o":"m -1 685 l 175 356 l -24 0 l 110 0 l 239 242 l 363 0 l 521 0 l 318 375 l 492 685 l 360 685 l 256 486 l 156 685 z "},"y":{"ha":497,"x_min":0,"x_max":0,"o":"m 0 685 l 194 22 b 67 -128 161 -100 144 -128 b 17 -124 47 -128 33 -126 l 17 -237 b 90 -246 39 -242 57 -246 b 289 -43 225 -246 256 -150 l 511 685 l 383 685 l 261 215 l 142 685 z "},"z":{"ha":474,"x_min":0,"x_max":0,"o":"m 44 685 l 44 578 l 299 578 l 21 107 l 21 0 l 464 0 l 464 107 l 172 107 l 461 599 l 461 685 z "},"{":{"ha":450,"x_min":0,"x_max":0,"o":"m 347 925 b 133 710 192 933 133 893 l 133 560 b 60 404 133 443 133 404 l 60 307 b 133 150 133 307 133 269 l 133 -15 b 347 -232 133 -210 203 -239 l 347 -151 b 264 -15 267 -151 264 -124 l 264 147 b 179 356 264 296 258 326 b 264 563 260 383 264 415 l 264 710 b 347 844 264 818 268 843 z "},"|":{"ha":694,"x_min":0,"x_max":0,"o":"m 418 1042 l 276 1042 l 276 -347 l 418 -347 z "},"}":{"ha":450,"x_min":0,"x_max":0,"o":"m 103 -232 b 317 -15 256 -239 317 -201 l 317 150 b 390 307 317 268 317 307 l 390 404 b 317 560 317 404 317 442 l 317 710 b 103 926 317 907 243 933 l 103 846 b 186 710 181 844 186 819 l 186 563 b 271 356 186 419 189 385 b 186 147 189 326 186 293 l 186 -15 b 103 -151 186 -125 181 -151 z "},"~":{"ha":710,"x_min":0,"x_max":0,"o":"m 99 349 b 208 442 118 388 147 442 b 281 425 238 442 269 429 b 478 361 369 389 436 361 b 690 532 608 361 660 469 l 608 579 b 496 497 585 540 558 497 b 369 536 461 497 440 506 b 219 578 268 578 238 578 b 19 401 101 578 58 486 z "},"¡":{"ha":474,"x_min":0,"x_max":0,"o":"m 331 -242 l 283 435 l 190 435 l 143 -242 z m 314 514 l 314 685 l 160 685 l 160 514 z "},"¢":{"ha":710,"x_min":0,"x_max":0,"o":"m 325 926 l 325 800 b 219 758 299 796 260 790 b 110 463 118 679 110 519 b 224 183 110 435 111 268 b 325 144 261 156 299 149 l 325 -7 l 406 -7 l 406 144 b 600 375 569 174 590 310 l 481 390 b 401 254 468 307 453 278 l 401 696 b 481 557 446 672 469 644 l 600 572 b 406 800 578 722 508 785 l 406 926 z m 328 257 b 246 474 300 274 246 306 b 278 644 246 500 247 589 b 328 690 293 671 313 682 z "},"£":{"ha":710,"x_min":0,"x_max":0,"o":"m 369 542 b 357 628 368 557 367 564 b 353 689 353 656 353 681 b 453 826 353 715 353 826 b 565 728 526 826 554 758 l 675 796 b 454 943 654 842 610 943 b 206 689 256 943 206 793 b 221 542 206 640 214 585 l 106 542 l 106 432 l 239 432 b 249 321 243 401 249 367 b 213 185 249 275 240 222 b 75 122 168 122 113 122 l 28 122 l 28 0 l 379 0 b 725 188 572 0 660 15 l 615 244 b 379 121 567 139 508 121 l 275 121 b 389 361 319 156 389 210 b 383 432 389 393 386 413 l 546 432 l 546 542 z "},"⁄":{"ha":118,"x_min":0,"x_max":0,"o":"m 235 926 l -217 0 l -117 0 l 335 926 z "},"¥":{"ha":710,"x_min":0,"x_max":0,"o":"m 39 926 l 204 557 l 67 557 l 67 472 l 242 472 l 283 376 l 67 376 l 67 292 l 285 292 l 285 0 l 422 0 l 422 292 l 656 292 l 656 376 l 422 376 l 463 472 l 656 472 l 656 557 l 501 557 l 672 926 l 542 926 l 365 511 l 194 926 z "},"ƒ":{"ha":710,"x_min":0,"x_max":0,"o":"m 419 639 b 556 828 443 769 458 828 b 597 822 578 828 586 825 l 615 936 b 538 944 594 942 569 944 b 285 639 340 944 313 790 l 174 639 l 157 525 l 267 525 l 199 94 b 68 -85 175 -53 154 -85 b 26 -82 53 -85 43 -83 l 8 -200 b 76 -207 28 -203 47 -207 b 332 85 275 -207 308 -65 l 401 525 l 543 525 l 560 639 z "},"§":{"ha":710,"x_min":0,"x_max":0,"o":"m 619 763 b 557 879 610 796 596 842 b 371 943 508 925 432 943 b 135 726 221 943 135 847 b 218 554 135 624 189 579 b 107 360 181 528 107 475 b 318 140 107 221 218 178 b 493 -14 433 96 493 72 b 357 -132 493 -81 451 -132 b 207 -7 236 -132 215 -44 l 82 -29 b 354 -239 93 -81 129 -239 b 628 4 525 -239 628 -135 b 521 196 628 122 560 169 b 619 383 563 232 619 281 b 422 601 619 521 515 564 b 267 742 318 644 267 665 b 372 843 267 772 282 843 b 501 735 468 843 490 774 z m 297 510 b 446 440 417 457 425 453 b 499 350 481 418 499 382 b 433 239 499 340 499 289 b 307 290 414 247 324 281 b 231 394 257 317 231 346 b 297 510 231 456 269 488 z "},"¤":{"ha":710,"x_min":0,"x_max":0,"o":"m 474 674 b 354 707 456 683 417 707 b 238 675 294 707 267 692 l 142 771 l 61 690 l 158 594 b 125 476 147 576 125 538 b 158 358 125 415 149 376 l 64 263 l 142 185 l 238 281 b 354 247 261 267 296 247 b 472 281 414 247 442 263 l 568 185 l 649 264 l 553 361 b 585 478 567 386 585 418 b 551 594 585 539 564 575 l 647 692 l 569 769 z m 354 358 b 236 476 290 358 236 411 b 354 596 236 542 289 596 b 474 478 421 596 474 543 b 354 358 474 410 419 358 z "},"'":{"ha":307,"x_min":0,"x_max":0,"o":"m 225 926 l 82 926 l 104 546 l 203 546 z "},"“":{"ha":521,"x_min":0,"x_max":0,"o":"m 431 600 l 431 772 l 365 772 l 444 942 l 376 942 l 283 768 l 283 600 z m 222 600 l 222 772 l 157 772 l 236 942 l 168 942 l 75 768 l 75 600 z "},"«":{"ha":544,"x_min":0,"x_max":0,"o":"m 483 135 l 410 356 l 483 578 l 404 578 l 274 356 l 404 135 z m 271 139 l 197 356 l 271 572 l 192 572 l 61 356 l 192 139 z "},"‹":{"ha":332,"x_min":0,"x_max":0,"o":"m 271 135 l 197 356 l 271 578 l 192 578 l 61 356 l 192 135 z "},"›":{"ha":332,"x_min":0,"x_max":0,"o":"m 61 578 l 133 356 l 61 135 l 140 135 l 271 356 l 140 578 z "},"–":{"ha":568,"x_min":0,"x_max":0,"o":"m 44 403 l 44 293 l 524 293 l 524 403 z "},"†":{"ha":710,"x_min":0,"x_max":0,"o":"m 288 926 l 288 665 l 83 665 l 83 544 l 288 544 l 288 -232 l 422 -232 l 422 544 l 626 544 l 626 665 l 422 665 l 422 926 z "},"‡":{"ha":710,"x_min":0,"x_max":0,"o":"m 288 926 l 288 665 l 83 665 l 83 544 l 288 544 l 288 150 l 83 150 l 83 29 l 288 29 l 288 -232 l 422 -232 l 422 29 l 626 29 l 626 150 l 422 150 l 422 544 l 626 544 l 626 665 l 422 665 l 422 926 z "},"·":{"ha":332,"x_min":0,"x_max":0,"o":"m 89 444 l 89 269 l 243 269 l 243 444 z "},"¶":{"ha":733,"x_min":0,"x_max":0,"o":"m 626 926 l 324 926 b 133 888 278 926 190 926 b 33 658 61 836 33 742 b 119 438 33 590 53 492 b 319 389 183 389 251 389 l 371 389 l 371 -232 l 464 -232 l 464 833 l 533 833 l 533 -232 l 626 -232 z "},"•":{"ha":168,"x_min":0,"x_max":0,"o":"m 0 568 l 0 378 l 168 378 l 168 568 z "},"‚":{"ha":307,"x_min":0,"x_max":0,"o":"m 88 172 l 88 0 l 153 0 l 74 -169 l 142 -169 l 235 4 l 235 172 z "},"„":{"ha":521,"x_min":0,"x_max":0,"o":"m 89 172 l 89 0 l 154 0 l 75 -169 l 143 -169 l 236 4 l 236 172 z m 297 172 l 297 0 l 363 0 l 283 -169 l 351 -169 l 444 4 l 444 172 z "},"”":{"ha":521,"x_min":0,"x_max":0,"o":"m 89 926 l 89 754 l 154 754 l 75 585 l 143 585 l 236 758 l 236 926 z m 297 926 l 297 754 l 363 754 l 283 585 l 351 585 l 444 758 l 444 926 z "},"»":{"ha":544,"x_min":0,"x_max":0,"o":"m 61 578 l 133 356 l 61 135 l 140 135 l 271 356 l 140 578 z m 274 578 l 347 356 l 274 135 l 353 135 l 483 356 l 353 578 z "},"…":{"ha":994,"x_min":0,"x_max":0,"o":"m 89 175 l 89 0 l 243 0 l 243 175 z m 421 175 l 421 0 l 575 0 l 575 175 z m 753 175 l 753 0 l 907 0 l 907 175 z "},"‰":{"ha":1372,"x_min":0,"x_max":0,"o":"m 242 935 b 58 696 133 935 58 851 b 242 456 58 533 138 456 b 424 696 342 456 424 529 b 242 935 424 849 351 935 z m 242 850 b 315 696 289 850 315 810 b 242 540 315 588 293 540 b 167 696 201 540 167 564 b 242 850 167 831 204 850 z m 706 471 b 524 231 601 471 524 393 b 706 -8 524 76 596 -8 b 888 231 811 -8 888 74 b 706 471 888 388 813 471 z m 706 386 b 779 231 753 386 779 343 b 706 76 779 107 749 76 b 643 128 665 76 651 104 b 631 229 633 157 631 194 b 706 386 631 356 663 386 z m 1131 471 b 949 231 1026 471 949 392 b 1131 -8 949 78 1021 -8 b 1313 231 1235 -8 1313 72 b 1131 471 1313 389 1236 471 z m 1131 386 b 1204 231 1178 386 1204 346 b 1131 76 1204 107 1174 76 b 1069 128 1092 76 1078 103 b 1057 229 1058 163 1057 204 b 1131 386 1057 351 1086 386 z m 654 926 l 203 0 l 294 0 l 746 926 z "},"¿":{"ha":686,"x_min":0,"x_max":0,"o":"m 501 54 b 360 -137 499 4 489 -137 b 240 -8 294 -137 240 -100 b 372 199 240 86 281 121 b 442 438 439 256 440 311 l 314 438 b 225 246 317 335 313 317 b 86 -6 158 190 86 125 b 353 -258 86 -142 171 -258 b 633 29 501 -258 615 -179 z m 453 518 l 453 685 l 301 685 l 301 518 z "},"`":{"ha":694,"x_min":0,"x_max":0,"o":"m 451 819 l 235 1010 l 161 917 l 400 767 z "},"´":{"ha":694,"x_min":0,"x_max":0,"o":"m 281 819 l 332 767 l 571 917 l 497 1010 z "},"ˆ":{"ha":694,"x_min":0,"x_max":0,"o":"m 106 782 l 225 772 l 347 854 l 469 772 l 589 782 l 347 968 z "},"˜":{"ha":694,"x_min":0,"x_max":0,"o":"m 499 929 b 438 878 486 907 468 878 b 363 907 421 878 403 883 b 275 936 318 931 301 936 b 138 833 221 936 181 904 l 194 794 b 261 844 214 821 231 844 b 331 817 276 844 292 839 b 418 786 376 790 396 786 b 557 890 494 786 538 858 z "},"¯":{"ha":694,"x_min":0,"x_max":0,"o":"m 160 903 l 160 814 l 535 814 l 535 903 z "},"˘":{"ha":694,"x_min":0,"x_max":0,"o":"m 139 938 b 347 772 150 893 178 772 b 556 938 517 772 544 894 l 460 938 b 347 861 451 908 436 861 b 261 889 303 861 276 874 b 235 938 244 904 239 924 z "},"˙":{"ha":694,"x_min":0,"x_max":0,"o":"m 347 778 b 429 857 385 778 429 807 b 347 939 429 904 392 939 b 265 857 304 939 265 904 b 347 778 265 806 311 778 z "},"¨":{"ha":694,"x_min":0,"x_max":0,"o":"m 239 789 b 313 858 269 789 313 813 b 239 929 313 901 275 929 b 165 858 203 929 165 901 b 239 789 165 811 208 789 z m 456 789 b 529 858 486 789 529 813 b 456 929 529 901 492 929 b 382 858 418 929 382 900 b 456 789 382 814 424 789 z "},"˚":{"ha":694,"x_min":0,"x_max":0,"o":"m 347 756 b 475 882 403 756 475 800 b 347 1011 475 957 414 1011 b 219 882 281 1011 219 958 b 347 756 219 799 293 756 z m 347 824 b 289 883 321 824 289 844 b 347 943 289 919 319 943 b 406 882 378 943 406 918 b 347 824 406 846 375 824 z "},"¸":{"ha":694,"x_min":0,"x_max":0,"o":"m 326 -1 l 286 -115 b 411 -168 343 -114 411 -111 b 356 -210 411 -197 385 -210 b 254 -185 313 -210 276 -194 l 235 -235 b 368 -276 263 -250 306 -276 b 507 -164 456 -276 507 -225 b 442 -72 507 -139 497 -92 b 371 -65 417 -64 396 -64 l 393 0 z "},"˝":{"ha":694,"x_min":0,"x_max":0,"o":"m 378 990 l 222 813 l 265 767 l 453 911 z m 571 990 l 414 813 l 457 767 l 644 911 z "},"˛":{"ha":694,"x_min":0,"x_max":0,"o":"m 531 -169 b 486 -174 519 -172 506 -174 b 397 -106 461 -174 397 -174 b 456 -1 397 -57 433 -22 l 393 -1 b 301 -125 361 -19 301 -53 b 451 -239 301 -176 339 -239 b 543 -224 499 -239 526 -229 z "},"ˇ":{"ha":694,"x_min":0,"x_max":0,"o":"m 106 947 l 347 761 l 589 947 l 469 957 l 347 874 l 225 957 z "},"—":{"ha":875,"x_min":0,"x_max":0,"o":"m 43 403 l 43 293 l 832 293 l 832 403 z "},"Æ":{"ha":969,"x_min":0,"x_max":0,"o":"m 957 125 l 583 125 l 583 415 l 875 415 l 875 538 l 583 538 l 583 804 l 956 804 l 956 926 l 365 926 l -56 0 l 83 0 l 193 253 l 435 253 l 435 0 l 957 0 z m 436 372 l 242 372 l 436 826 z "},"ª":{"ha":710,"x_min":0,"x_max":0,"o":"m 281 794 b 349 856 286 814 294 856 b 411 761 413 856 411 801 b 147 596 308 763 147 749 b 292 456 147 499 217 456 b 435 539 379 456 414 510 b 442 467 438 500 439 492 l 543 467 b 531 600 531 501 531 560 l 531 750 b 357 943 531 828 531 943 b 250 919 332 943 289 940 b 164 807 183 888 172 840 z m 272 601 b 411 683 272 697 386 688 b 326 543 411 640 411 543 b 272 601 283 543 272 571 z "},"Ł":{"ha":568,"x_min":0,"x_max":0,"o":"m 89 926 l 89 463 l 10 383 l 10 242 l 89 321 l 89 0 l 569 0 l 569 129 l 242 129 l 242 422 l 404 585 l 404 728 l 242 564 l 242 926 z "},"Ø":{"ha":781,"x_min":0,"x_max":0,"o":"m 603 978 l 564 894 b 390 943 539 910 483 943 b 61 467 108 943 61 653 b 158 90 61 408 65 200 l 86 -56 l 183 -56 l 225 29 b 390 -17 272 -3 338 -17 b 719 463 656 -17 719 231 b 626 832 719 571 706 725 l 700 978 z m 236 225 b 210 460 222 268 210 333 b 249 728 210 490 210 639 b 392 824 275 786 314 824 b 499 789 453 824 482 803 z m 547 690 b 571 463 569 618 571 513 b 550 251 571 350 557 285 b 389 103 521 131 453 103 b 289 132 331 103 301 122 z "},"Œ":{"ha":1113,"x_min":0,"x_max":0,"o":"m 1096 926 l 571 926 l 571 849 b 392 943 544 883 497 943 b 178 858 315 943 233 914 b 57 458 68 749 57 543 b 135 124 57 371 72 221 b 385 -17 210 7 315 -17 b 567 86 494 -17 535 40 l 567 0 l 1099 0 l 1099 125 l 710 125 l 710 415 l 1013 415 l 1013 538 l 710 538 l 710 804 l 1096 804 z m 563 235 b 404 110 533 154 482 110 b 219 443 268 110 219 243 b 278 753 219 510 224 665 b 401 817 314 811 372 817 b 563 704 507 817 540 749 z "},"º":{"ha":710,"x_min":0,"x_max":0,"o":"m 356 943 b 160 699 190 943 160 806 b 354 456 160 581 197 456 b 550 704 508 456 550 574 b 356 943 550 817 511 943 z m 356 867 b 433 699 410 867 433 810 b 354 532 433 576 406 532 b 276 699 299 532 276 588 b 356 867 276 796 293 867 z "},"æ":{"ha":969,"x_min":0,"x_max":0,"o":"m 936 321 b 903 538 935 386 933 456 b 686 699 878 606 803 699 b 503 618 575 699 526 644 b 450 669 490 635 479 651 b 321 701 424 686 385 701 b 185 671 294 701 238 699 b 72 507 93 624 78 542 l 201 489 b 314 599 207 518 222 599 b 415 424 419 599 417 499 b 192 397 329 424 260 419 b 49 183 106 368 49 286 b 250 -17 49 89 100 -17 b 474 113 393 -17 447 69 b 682 -17 494 72 542 -17 b 928 200 876 -17 914 139 l 801 217 b 683 90 790 171 772 90 b 551 321 550 90 551 254 z m 554 417 b 676 599 560 510 590 599 b 792 417 788 599 790 457 z m 415 335 b 282 88 426 88 296 88 b 193 192 193 88 193 171 b 376 338 193 269 228 338 b 415 335 386 338 394 338 z "},"ı":{"ha":308,"x_min":0,"x_max":0,"o":"m 83 685 l 83 0 l 225 0 l 225 685 z "},"ł":{"ha":331,"x_min":0,"x_max":0,"o":"m 94 926 l 94 497 l 7 410 l 7 296 l 94 385 l 94 0 l 236 0 l 236 474 l 324 561 l 324 675 l 236 586 l 236 926 z "},"ø":{"ha":639,"x_min":0,"x_max":0,"o":"m 489 746 l 451 671 b 317 701 432 681 392 701 b 50 342 103 701 50 514 b 136 53 50 154 110 85 l 74 -72 l 156 -72 l 196 8 b 318 -17 232 -7 263 -17 b 589 347 549 -17 589 185 b 510 622 589 443 572 544 l 571 746 z m 204 167 b 183 342 194 199 183 240 b 322 600 183 547 239 600 b 396 581 349 600 374 594 z m 439 501 b 456 342 449 456 456 414 b 317 83 456 111 383 83 b 251 97 289 83 275 89 z "},"œ":{"ha":994,"x_min":0,"x_max":0,"o":"m 960 321 b 910 582 958 406 957 490 b 704 701 882 636 814 701 b 513 599 590 701 542 636 b 314 701 468 664 410 701 b 50 342 96 701 50 501 b 314 -17 50 174 101 -17 b 504 85 390 -17 449 7 b 701 -17 576 -15 665 -17 b 954 200 903 -17 942 149 l 825 218 b 707 90 814 168 796 90 b 575 321 575 90 575 247 z m 318 594 b 435 342 414 594 435 481 b 318 90 435 201 413 90 b 200 342 238 90 200 165 b 318 594 200 511 235 594 z m 578 417 b 700 597 585 510 613 597 b 815 417 789 597 817 510 z "},"ß":{"ha":710,"x_min":0,"x_max":0,"o":"m 11 508 l 92 508 l 92 -64 l 233 -64 l 233 625 b 258 810 233 704 233 767 b 358 869 285 857 324 869 b 469 760 426 869 469 825 b 301 625 469 660 350 635 b 283 542 293 603 283 574 b 421 376 283 468 335 425 b 554 217 500 333 554 303 b 440 90 554 143 513 90 b 338 113 393 90 358 104 l 303 8 b 438 -17 332 -1 376 -17 b 688 238 604 -17 688 103 b 479 497 688 396 568 456 b 383 564 403 533 396 542 b 606 775 513 594 606 661 b 378 972 606 881 522 972 b 147 864 339 972 218 964 b 92 622 90 783 92 690 l 11 622 z "},"¬":{"ha":710,"x_min":0,"x_max":0,"o":"m 521 311 l 639 311 l 639 614 l 71 614 l 71 501 l 521 501 z "},"µ":{"ha":639,"x_min":0,"x_max":0,"o":"m 414 685 l 414 356 b 397 153 414 260 413 192 b 317 97 383 121 357 97 b 239 153 279 97 253 119 b 221 356 222 190 221 246 l 221 685 l 79 685 l 79 -232 l 210 -232 l 210 103 b 317 -17 219 57 238 -17 b 425 103 397 -17 414 57 l 425 0 l 556 0 l 556 685 z "},"™":{"ha":994,"x_min":0,"x_max":0,"o":"m 138 399 l 240 399 l 240 844 l 360 844 l 360 926 l 21 926 l 21 844 l 138 844 z m 401 399 l 488 399 l 488 843 l 601 399 l 683 399 l 804 842 l 804 399 l 900 399 l 900 926 l 753 926 l 650 547 l 553 926 l 401 926 z "},"Ð":{"ha":781,"x_min":0,"x_max":0,"o":"m 10 415 l 89 415 l 89 0 l 308 0 b 547 60 393 0 482 14 b 722 471 650 132 722 276 b 613 813 722 596 693 719 b 297 926 525 914 385 926 l 89 926 l 89 538 l 10 538 z m 242 415 l 413 415 l 413 538 l 242 538 l 242 804 l 306 804 b 560 463 503 804 560 644 b 468 178 560 401 554 261 b 306 122 442 151 393 122 l 242 122 z "},"½":{"ha":1065,"x_min":0,"x_max":0,"o":"m 208 932 b 76 826 153 865 103 840 l 76 724 b 181 792 125 747 142 758 l 181 456 l 79 456 l 79 371 l 388 371 l 388 456 l 293 456 l 293 932 z m 690 926 l 239 0 l 338 0 l 790 926 z m 703 364 b 788 474 707 397 715 474 b 858 393 844 474 858 425 b 821 297 858 356 839 321 b 597 90 767 226 672 150 l 597 0 l 978 0 l 983 97 l 733 97 b 878 210 810 146 867 199 b 979 399 911 240 979 306 b 794 565 979 476 928 565 b 596 383 632 565 606 432 z "},"±":{"ha":710,"x_min":0,"x_max":0,"o":"m 414 519 l 414 747 l 296 747 l 296 519 l 71 519 l 71 407 l 296 407 l 296 186 l 414 186 l 414 407 l 639 407 l 639 519 z m 639 7 l 639 119 l 71 119 l 71 7 z "},"Þ":{"ha":686,"x_min":0,"x_max":0,"o":"m 89 926 l 89 0 l 242 0 l 242 218 l 321 218 b 553 267 383 218 483 218 b 658 499 638 325 658 432 b 583 706 658 563 642 644 b 318 782 518 775 424 782 l 242 782 l 242 926 z m 318 664 b 465 615 383 664 431 664 b 497 503 493 575 497 532 b 318 340 497 340 389 340 l 242 340 l 242 664 z "},"¼":{"ha":1065,"x_min":0,"x_max":0,"o":"m 689 208 l 831 464 l 831 208 z m 708 926 l 257 0 l 356 0 l 807 926 z m 811 565 l 596 206 l 596 129 l 824 129 l 824 0 l 938 0 l 938 129 l 1010 129 l 1010 215 l 938 215 l 938 565 z m 225 932 b 93 826 169 865 119 840 l 93 724 b 197 792 142 747 158 758 l 197 456 l 96 456 l 96 371 l 404 371 l 404 456 l 310 456 l 310 932 z "},"÷":{"ha":710,"x_min":0,"x_max":0,"o":"m 639 407 l 639 519 l 71 519 l 71 407 z m 424 589 l 424 743 l 286 743 l 286 589 z m 424 183 l 424 338 l 286 338 l 286 183 z "},"¦":{"ha":694,"x_min":0,"x_max":0,"o":"m 418 938 l 276 938 l 276 451 l 418 451 z m 418 243 l 276 243 l 276 -243 l 418 -243 z "},"°":{"ha":710,"x_min":0,"x_max":0,"o":"m 356 943 b 139 726 236 943 139 849 b 356 510 139 606 236 510 b 571 726 474 510 571 606 b 356 943 571 847 474 943 z m 356 851 b 463 726 414 851 463 796 b 356 601 463 656 414 601 b 247 726 297 601 247 656 b 356 851 247 796 296 851 z "},"þ":{"ha":663,"x_min":0,"x_max":0,"o":"m 82 926 l 82 -232 l 222 -232 l 224 71 b 376 -12 249 36 285 -12 b 519 44 418 -12 475 -3 b 614 353 604 133 614 285 b 386 697 614 581 513 697 b 222 579 283 697 244 622 l 222 926 z m 222 400 b 349 593 222 490 268 593 b 464 349 453 593 464 440 b 343 94 464 189 433 94 b 249 147 307 94 274 110 b 222 286 222 189 222 232 z "},"¾":{"ha":1065,"x_min":0,"x_max":0,"o":"m 697 208 l 839 464 l 839 208 z m 736 926 l 283 0 l 382 0 l 835 926 z m 819 565 l 604 206 l 604 129 l 832 129 l 832 0 l 946 0 l 946 129 l 1018 129 l 1018 215 l 946 215 l 946 565 z m 158 768 b 243 850 168 801 182 850 b 313 774 269 850 313 843 b 218 699 313 699 253 699 l 172 699 l 172 618 l 217 618 b 322 535 261 618 322 613 b 240 450 322 465 272 450 b 144 543 164 450 151 513 l 42 521 b 244 361 50 481 74 361 b 444 529 364 361 444 428 b 343 664 444 629 371 654 b 429 785 372 678 429 704 b 253 936 429 875 364 936 b 58 790 101 936 69 829 z "},"®":{"ha":710,"x_min":0,"x_max":0,"o":"m 256 806 l 256 500 l 322 500 l 322 625 l 363 625 l 410 500 l 482 500 l 421 640 b 474 718 433 644 474 664 b 360 806 474 806 385 806 z m 358 761 b 406 718 372 761 406 761 b 358 669 406 693 394 669 l 322 669 l 322 761 z m 356 926 b 78 647 203 926 78 803 b 356 371 78 493 204 371 b 632 647 504 371 632 492 b 356 926 632 804 506 926 z m 356 864 b 565 647 471 864 565 768 b 356 433 565 529 471 433 b 144 647 240 433 144 529 b 356 864 144 768 239 864 z "},"−":{"ha":710,"x_min":0,"x_max":0,"o":"m 639 407 l 639 519 l 71 519 l 71 407 z "},"ð":{"ha":615,"x_min":0,"x_max":0,"o":"m 188 343 b 307 594 188 508 221 594 b 428 343 389 594 428 521 b 308 90 428 160 386 90 b 188 343 228 90 188 163 z m 583 940 l 540 1018 l 381 935 b 344 990 368 954 357 972 l 231 931 b 267 875 243 911 256 892 l 122 799 l 165 721 l 311 797 b 369 667 335 756 354 713 b 272 701 347 683 324 701 b 38 343 199 701 38 651 b 306 -17 38 165 93 -17 b 578 333 543 -17 578 200 b 426 858 578 519 515 699 z "},"×":{"ha":710,"x_min":0,"x_max":0,"o":"m 354 547 l 186 715 l 103 632 l 271 463 l 103 294 l 186 211 l 354 379 l 524 211 l 607 294 l 439 463 l 607 632 l 524 715 z "},"©":{"ha":1085,"x_min":0,"x_max":0,"o":"m 647 382 b 556 264 632 300 610 264 b 450 458 469 264 450 364 b 554 661 450 558 468 661 b 646 538 629 661 639 590 l 756 551 b 553 750 749 604 726 750 b 328 460 367 750 328 585 b 551 175 328 364 353 175 b 686 219 619 175 660 197 b 756 369 740 267 750 333 z m 542 -17 b 1026 463 810 -17 1026 197 b 542 943 1026 726 810 943 b 58 463 274 943 58 726 b 542 -17 58 197 275 -17 z m 542 75 b 160 463 331 75 160 249 b 542 851 160 676 331 851 b 925 463 753 851 925 676 b 542 75 925 249 753 75 z "},"Á":{"ha":686,"x_min":0,"x_max":0,"o":"m 263 926 l -6 0 l 142 0 l 199 232 l 468 232 l 526 0 l 682 0 l 435 926 z m 228 353 l 333 778 l 438 353 z m 242 1075 l 279 1008 l 557 1094 l 508 1207 z "},"Â":{"ha":686,"x_min":0,"x_max":0,"o":"m 263 926 l -6 0 l 142 0 l 199 232 l 468 232 l 526 0 l 682 0 l 435 926 z m 228 353 l 333 778 l 438 353 z m 97 1018 l 222 1008 l 347 1078 l 472 1008 l 597 1018 l 347 1194 z "},"Ä":{"ha":686,"x_min":0,"x_max":0,"o":"m 263 926 l -6 0 l 142 0 l 199 232 l 468 232 l 526 0 l 682 0 l 435 926 z m 228 353 l 333 778 l 438 353 z m 236 1018 b 313 1090 271 1018 313 1044 b 236 1163 313 1131 278 1163 b 160 1089 199 1163 160 1133 b 236 1018 160 1042 204 1018 z m 458 1018 b 535 1089 490 1018 535 1042 b 458 1163 535 1132 497 1163 b 382 1090 418 1163 382 1132 b 458 1018 382 1043 425 1018 z "},"À":{"ha":686,"x_min":0,"x_max":0,"o":"m 263 926 l -6 0 l 142 0 l 199 232 l 468 232 l 526 0 l 682 0 l 435 926 z m 228 353 l 333 778 l 438 353 z m 414 1075 l 147 1207 l 99 1094 l 376 1008 z "},"Å":{"ha":686,"x_min":0,"x_max":0,"o":"m 263 926 l -6 0 l 142 0 l 199 232 l 468 232 l 526 0 l 682 0 l 435 926 z m 228 353 l 333 778 l 438 353 z m 347 985 b 478 1114 403 985 478 1029 b 347 1247 478 1194 415 1247 b 217 1115 279 1247 217 1193 b 347 985 217 1028 292 985 z m 347 1054 b 288 1115 321 1054 288 1075 b 347 1178 288 1154 319 1178 b 407 1115 375 1178 407 1154 b 347 1054 407 1076 375 1054 z "},"Ã":{"ha":686,"x_min":0,"x_max":0,"o":"m 263 926 l -6 0 l 142 0 l 199 232 l 468 232 l 526 0 l 682 0 l 435 926 z m 228 353 l 333 778 l 438 353 z m 494 1158 b 429 1110 482 1139 464 1110 b 372 1125 408 1110 392 1117 b 257 1161 296 1157 288 1161 b 110 1060 214 1161 167 1146 l 171 1019 b 240 1067 190 1046 208 1067 b 315 1043 257 1067 274 1063 b 408 1015 365 1019 386 1015 b 557 1118 490 1015 538 1088 z "},"Ç":{"ha":733,"x_min":0,"x_max":0,"o":"m 696 626 b 394 943 686 706 653 943 b 58 460 88 943 58 606 b 172 74 58 353 74 186 b 335 -12 225 11 299 -4 l 299 -124 b 379 -128 311 -124 365 -125 b 424 -176 390 -131 424 -140 b 369 -218 424 -201 404 -218 b 265 -193 326 -218 290 -203 l 246 -244 b 383 -289 274 -261 318 -289 b 526 -172 481 -289 526 -229 b 457 -78 526 -153 519 -99 b 385 -71 429 -68 406 -69 l 401 -17 b 594 57 433 -15 521 -12 b 696 292 674 133 689 249 l 554 311 b 399 110 532 176 493 110 b 221 456 251 110 221 289 b 399 817 221 603 239 817 b 554 607 525 817 543 685 z "},"É":{"ha":639,"x_min":0,"x_max":0,"o":"m 89 926 l 89 0 l 625 0 l 625 125 l 242 125 l 242 415 l 538 415 l 538 538 l 242 538 l 242 804 l 618 804 l 618 926 z m 263 1075 l 300 1008 l 578 1094 l 529 1207 z "},"Ê":{"ha":639,"x_min":0,"x_max":0,"o":"m 89 926 l 89 0 l 625 0 l 625 125 l 242 125 l 242 415 l 538 415 l 538 538 l 242 538 l 242 804 l 618 804 l 618 926 z m 76 1018 l 201 1008 l 326 1078 l 451 1008 l 576 1018 l 326 1194 z "},"Ë":{"ha":639,"x_min":0,"x_max":0,"o":"m 89 926 l 89 0 l 625 0 l 625 125 l 242 125 l 242 415 l 538 415 l 538 538 l 242 538 l 242 804 l 618 804 l 618 926 z m 236 1018 b 313 1090 271 1018 313 1044 b 236 1163 313 1131 278 1163 b 160 1089 199 1163 160 1133 b 236 1018 160 1042 204 1018 z m 458 1018 b 535 1089 490 1018 535 1042 b 458 1163 535 1132 497 1163 b 382 1090 418 1163 382 1132 b 458 1018 382 1043 425 1018 z "},"È":{"ha":639,"x_min":0,"x_max":0,"o":"m 89 926 l 89 0 l 625 0 l 625 125 l 242 125 l 242 415 l 538 415 l 538 538 l 242 538 l 242 804 l 618 804 l 618 926 z m 442 1075 l 175 1207 l 126 1094 l 404 1008 z "},"Í":{"ha":332,"x_min":0,"x_max":0,"o":"m 89 926 l 89 0 l 242 0 l 242 926 z m 96 1075 l 133 1008 l 411 1094 l 363 1207 z "},"Î":{"ha":332,"x_min":0,"x_max":0,"o":"m 89 926 l 89 0 l 242 0 l 242 926 z m -90 1018 l 35 1008 l 160 1078 l 285 1008 l 410 1018 l 160 1194 z "},"Ï":{"ha":332,"x_min":0,"x_max":0,"o":"m 89 926 l 89 0 l 242 0 l 242 926 z m 56 1018 b 132 1090 90 1018 132 1044 b 56 1163 132 1131 97 1163 b -21 1089 18 1163 -21 1133 b 56 1018 -21 1042 24 1018 z m 278 1018 b 354 1089 310 1018 354 1042 b 278 1163 354 1132 317 1163 b 201 1090 238 1163 201 1132 b 278 1018 201 1043 244 1018 z "},"Ì":{"ha":332,"x_min":0,"x_max":0,"o":"m 89 926 l 89 0 l 242 0 l 242 926 z m 247 1075 l -19 1207 l -68 1094 l 210 1008 z "},"Ñ":{"ha":781,"x_min":0,"x_max":0,"o":"m 83 926 l 83 0 l 211 0 l 211 742 l 554 0 l 697 0 l 697 926 l 569 926 l 569 258 l 264 926 z m 564 1158 b 499 1110 551 1139 533 1110 b 442 1125 478 1110 461 1117 b 326 1161 365 1157 357 1161 b 179 1060 283 1161 236 1146 l 240 1019 b 310 1067 260 1046 278 1067 b 385 1043 326 1067 343 1063 b 478 1015 435 1019 456 1015 b 626 1118 560 1015 607 1088 z "},"Ó":{"ha":781,"x_min":0,"x_max":0,"o":"m 392 943 b 58 463 114 943 58 675 b 393 -17 58 247 115 -17 b 724 463 681 -17 724 272 b 392 943 724 679 668 943 z m 392 817 b 525 722 472 817 504 768 b 563 463 558 644 563 526 b 525 204 563 413 560 286 b 393 110 504 157 471 110 b 257 204 319 110 283 144 b 219 463 224 283 219 407 b 257 722 219 519 222 643 b 392 817 279 772 313 817 z m 318 1075 l 356 1008 l 633 1094 l 585 1207 z "},"Ô":{"ha":781,"x_min":0,"x_max":0,"o":"m 392 943 b 58 463 114 943 58 675 b 393 -17 58 247 115 -17 b 724 463 681 -17 724 272 b 392 943 724 679 668 943 z m 392 817 b 525 722 472 817 504 768 b 563 463 558 644 563 526 b 525 204 563 413 560 286 b 393 110 504 157 471 110 b 257 204 319 110 283 144 b 219 463 224 283 219 407 b 257 722 219 519 222 643 b 392 817 279 772 313 817 z m 139 1018 l 264 1008 l 389 1078 l 514 1008 l 639 1018 l 389 1194 z "},"Ö":{"ha":781,"x_min":0,"x_max":0,"o":"m 392 943 b 58 463 114 943 58 675 b 393 -17 58 247 115 -17 b 724 463 681 -17 724 272 b 392 943 724 679 668 943 z m 392 817 b 525 722 472 817 504 768 b 563 463 558 644 563 526 b 525 204 563 413 560 286 b 393 110 504 157 471 110 b 257 204 319 110 283 144 b 219 463 224 283 219 407 b 257 722 219 519 222 643 b 392 817 279 772 313 817 z m 278 1018 b 354 1090 313 1018 354 1044 b 278 1163 354 1131 319 1163 b 201 1089 240 1163 201 1133 b 278 1018 201 1042 246 1018 z m 500 1018 b 576 1089 532 1018 576 1042 b 500 1163 576 1132 539 1163 b 424 1090 460 1163 424 1132 b 500 1018 424 1043 467 1018 z "},"Ò":{"ha":781,"x_min":0,"x_max":0,"o":"m 392 943 b 58 463 114 943 58 675 b 393 -17 58 247 115 -17 b 724 463 681 -17 724 272 b 392 943 724 679 668 943 z m 392 817 b 525 722 472 817 504 768 b 563 463 558 644 563 526 b 525 204 563 413 560 286 b 393 110 504 157 471 110 b 257 204 319 110 283 144 b 219 463 224 283 219 407 b 257 722 219 519 222 643 b 392 817 279 772 313 817 z m 469 1075 l 203 1207 l 154 1094 l 432 1008 z "},"Õ":{"ha":781,"x_min":0,"x_max":0,"o":"m 392 943 b 58 463 114 943 58 675 b 393 -17 58 247 115 -17 b 724 463 681 -17 724 272 b 392 943 724 679 668 943 z m 392 817 b 525 722 472 817 504 768 b 563 463 558 644 563 526 b 525 204 563 413 560 286 b 393 110 504 157 471 110 b 257 204 319 110 283 144 b 219 463 224 283 219 407 b 257 722 219 519 222 643 b 392 817 279 772 313 817 z m 550 1158 b 485 1110 538 1139 519 1110 b 428 1125 464 1110 447 1117 b 313 1161 351 1157 343 1161 b 165 1060 269 1161 222 1146 l 226 1019 b 296 1067 246 1046 264 1067 b 371 1043 313 1067 329 1063 b 464 1015 421 1019 442 1015 b 613 1118 546 1015 593 1088 z "},"Š":{"ha":710,"x_min":0,"x_max":0,"o":"m 640 719 b 354 943 621 783 572 943 b 69 682 158 943 69 808 b 153 493 69 596 110 531 b 349 394 203 450 246 433 b 507 243 432 364 507 331 b 357 110 507 200 485 110 b 168 281 206 110 178 239 l 32 242 b 353 -17 47 179 93 -17 b 664 264 569 -17 664 131 b 404 546 664 447 511 506 b 219 700 294 589 219 617 b 346 817 219 742 247 817 b 510 674 442 817 481 760 z m 132 1172 l 382 997 l 632 1172 l 507 1182 l 382 1113 l 257 1182 z "},"Ú":{"ha":757,"x_min":0,"x_max":0,"o":"m 82 926 l 82 351 b 378 -17 82 188 86 -17 b 579 40 486 -17 543 14 b 675 361 672 110 675 226 l 675 926 l 538 926 l 538 354 b 386 110 538 221 538 110 b 232 351 232 110 232 228 l 232 926 z m 318 1075 l 356 1008 l 633 1094 l 585 1207 z "},"Û":{"ha":757,"x_min":0,"x_max":0,"o":"m 82 926 l 82 351 b 378 -17 82 188 86 -17 b 579 40 486 -17 543 14 b 675 361 672 110 675 226 l 675 926 l 538 926 l 538 354 b 386 110 538 221 538 110 b 232 351 232 110 232 228 l 232 926 z m 132 1018 l 257 1008 l 382 1078 l 507 1008 l 632 1018 l 382 1194 z "},"Ü":{"ha":757,"x_min":0,"x_max":0,"o":"m 82 926 l 82 351 b 378 -17 82 188 86 -17 b 579 40 486 -17 543 14 b 675 361 672 110 675 226 l 675 926 l 538 926 l 538 354 b 386 110 538 221 538 110 b 232 351 232 110 232 228 l 232 926 z m 278 1018 b 354 1090 313 1018 354 1044 b 278 1163 354 1131 319 1163 b 201 1089 240 1163 201 1133 b 278 1018 201 1042 246 1018 z m 500 1018 b 576 1089 532 1018 576 1042 b 500 1163 576 1132 539 1163 b 424 1090 460 1163 424 1132 b 500 1018 424 1043 467 1018 z "},"Ù":{"ha":757,"x_min":0,"x_max":0,"o":"m 82 926 l 82 351 b 378 -17 82 188 86 -17 b 579 40 486 -17 543 14 b 675 361 672 110 675 226 l 675 926 l 538 926 l 538 354 b 386 110 538 221 538 110 b 232 351 232 110 232 228 l 232 926 z m 442 1075 l 175 1207 l 126 1094 l 404 1008 z "},"Ý":{"ha":568,"x_min":0,"x_max":0,"o":"m -43 926 l 203 392 l 203 0 l 356 0 l 356 392 l 613 926 l 465 926 l 293 540 l 124 926 z m 235 1075 l 272 1008 l 550 1094 l 501 1207 z "},"Ÿ":{"ha":568,"x_min":0,"x_max":0,"o":"m -43 926 l 203 392 l 203 0 l 356 0 l 356 392 l 613 926 l 465 926 l 293 540 l 124 926 z m 181 1018 b 257 1090 215 1018 257 1044 b 181 1163 257 1131 222 1163 b 104 1089 143 1163 104 1133 b 181 1018 104 1042 149 1018 z m 403 1018 b 479 1089 435 1018 479 1042 b 403 1163 479 1132 442 1163 b 326 1090 363 1163 326 1132 b 403 1018 326 1043 369 1018 z "},"Ž":{"ha":592,"x_min":0,"x_max":0,"o":"m 26 926 l 26 801 l 407 801 l 1 118 l 1 0 l 592 0 l 592 129 l 171 129 l 582 819 l 582 926 z m 42 1172 l 292 997 l 542 1172 l 417 1182 l 292 1113 l 167 1182 z "},"á":{"ha":639,"x_min":0,"x_max":0,"o":"m 210 490 b 321 597 215 519 231 597 b 422 450 422 597 422 500 l 422 422 b 190 394 324 425 249 414 b 49 181 108 367 49 290 b 240 -17 49 54 129 -17 b 433 114 363 -17 407 65 b 443 0 433 50 436 33 l 575 0 b 564 190 564 47 564 132 l 564 422 b 521 628 564 496 564 581 b 332 701 489 665 431 701 b 74 508 268 701 106 685 z m 422 300 b 288 88 422 149 347 88 b 196 190 240 88 196 108 b 381 336 196 254 217 336 b 422 335 390 336 400 336 z m 253 819 l 304 767 l 543 917 l 469 1010 z "},"â":{"ha":639,"x_min":0,"x_max":0,"o":"m 210 490 b 321 597 215 519 231 597 b 422 450 422 597 422 500 l 422 422 b 190 394 324 425 249 414 b 49 181 108 367 49 290 b 240 -17 49 54 129 -17 b 433 114 363 -17 407 65 b 443 0 433 50 436 33 l 575 0 b 564 190 564 47 564 132 l 564 422 b 521 628 564 496 564 581 b 332 701 489 665 431 701 b 74 508 268 701 106 685 z m 422 300 b 288 88 422 149 347 88 b 196 190 240 88 196 108 b 381 336 196 254 217 336 b 422 335 390 336 400 336 z m 78 782 l 197 772 l 319 854 l 442 772 l 561 782 l 319 968 z "},"ä":{"ha":639,"x_min":0,"x_max":0,"o":"m 210 490 b 321 597 215 519 231 597 b 422 450 422 597 422 500 l 422 422 b 190 394 324 425 249 414 b 49 181 108 367 49 290 b 240 -17 49 54 129 -17 b 433 114 363 -17 407 65 b 443 0 433 50 436 33 l 575 0 b 564 190 564 47 564 132 l 564 422 b 521 628 564 496 564 581 b 332 701 489 665 431 701 b 74 508 268 701 106 685 z m 422 300 b 288 88 422 149 347 88 b 196 190 240 88 196 108 b 381 336 196 254 217 336 b 422 335 390 336 400 336 z m 211 789 b 285 858 242 789 285 813 b 211 929 285 901 247 929 b 138 858 175 929 138 901 b 211 789 138 811 181 789 z m 428 789 b 501 858 458 789 501 813 b 428 929 501 901 464 929 b 354 858 390 929 354 900 b 428 789 354 814 396 789 z "},"à":{"ha":639,"x_min":0,"x_max":0,"o":"m 210 490 b 321 597 215 519 231 597 b 422 450 422 597 422 500 l 422 422 b 190 394 324 425 249 414 b 49 181 108 367 49 290 b 240 -17 49 54 129 -17 b 433 114 363 -17 407 65 b 443 0 433 50 436 33 l 575 0 b 564 190 564 47 564 132 l 564 422 b 521 628 564 496 564 581 b 332 701 489 665 431 701 b 74 508 268 701 106 685 z m 422 300 b 288 88 422 149 347 88 b 196 190 240 88 196 108 b 381 336 196 254 217 336 b 422 335 390 336 400 336 z m 424 819 l 207 1010 l 133 917 l 372 767 z "},"å":{"ha":639,"x_min":0,"x_max":0,"o":"m 210 490 b 321 597 215 519 231 597 b 422 450 422 597 422 500 l 422 422 b 190 394 324 425 249 414 b 49 181 108 367 49 290 b 240 -17 49 54 129 -17 b 433 114 363 -17 407 65 b 443 0 433 50 436 33 l 575 0 b 564 190 564 47 564 132 l 564 422 b 521 628 564 496 564 581 b 332 701 489 665 431 701 b 74 508 268 701 106 685 z m 422 300 b 288 88 422 149 347 88 b 196 190 240 88 196 108 b 381 336 196 254 217 336 b 422 335 390 336 400 336 z m 319 756 b 447 882 375 756 447 800 b 319 1011 447 957 386 1011 b 192 882 253 1011 192 958 b 319 756 192 799 265 756 z m 319 824 b 261 883 293 824 261 844 b 319 943 261 919 292 943 b 378 882 350 943 378 918 b 319 824 378 846 347 824 z "},"ã":{"ha":639,"x_min":0,"x_max":0,"o":"m 210 490 b 321 597 215 519 231 597 b 422 450 422 597 422 500 l 422 422 b 190 394 324 425 249 414 b 49 181 108 367 49 290 b 240 -17 49 54 129 -17 b 433 114 363 -17 407 65 b 443 0 433 50 436 33 l 575 0 b 564 190 564 47 564 132 l 564 422 b 521 628 564 496 564 581 b 332 701 489 665 431 701 b 74 508 268 701 106 685 z m 422 300 b 288 88 422 149 347 88 b 196 190 240 88 196 108 b 381 336 196 254 217 336 b 422 335 390 336 400 336 z m 471 929 b 410 878 458 907 440 878 b 335 907 393 878 375 883 b 247 936 290 931 274 936 b 110 833 193 936 153 904 l 167 794 b 233 844 186 821 203 844 b 303 817 249 844 264 839 b 390 786 349 790 368 786 b 529 890 467 786 510 858 z "},"ç":{"ha":568,"x_min":0,"x_max":0,"o":"m 558 454 b 318 701 547 528 522 701 b 49 340 92 701 49 499 b 124 63 49 257 61 142 b 256 -12 135 49 168 7 l 218 -115 b 344 -167 275 -114 344 -111 b 289 -210 344 -194 324 -210 b 186 -183 244 -210 210 -194 l 167 -235 b 301 -276 194 -250 238 -276 b 440 -164 388 -276 440 -226 b 374 -72 440 -133 426 -89 b 303 -65 350 -62 328 -64 l 319 -17 b 558 236 504 -4 540 107 l 422 247 b 319 100 417 190 407 100 b 197 328 197 100 197 267 b 318 589 197 493 221 589 b 422 440 399 589 411 521 z "},"é":{"ha":615,"x_min":0,"x_max":0,"o":"m 581 321 b 531 582 579 404 578 489 b 324 701 503 636 435 701 b 50 332 171 701 50 585 b 322 -17 50 153 119 -17 b 575 200 524 -17 563 149 l 447 218 b 326 90 436 169 418 90 b 194 321 194 90 194 244 z m 197 417 b 319 597 204 510 233 597 b 425 514 347 597 403 583 b 438 417 438 474 438 443 z m 242 819 l 293 767 l 532 917 l 458 1010 z "},"ê":{"ha":615,"x_min":0,"x_max":0,"o":"m 581 321 b 531 582 579 404 578 489 b 324 701 503 636 435 701 b 50 332 171 701 50 585 b 322 -17 50 153 119 -17 b 575 200 524 -17 563 149 l 447 218 b 326 90 436 169 418 90 b 194 321 194 90 194 244 z m 197 417 b 319 597 204 510 233 597 b 425 514 347 597 403 583 b 438 417 438 474 438 443 z m 67 782 l 186 772 l 308 854 l 431 772 l 550 782 l 308 968 z "},"ë":{"ha":615,"x_min":0,"x_max":0,"o":"m 581 321 b 531 582 579 404 578 489 b 324 701 503 636 435 701 b 50 332 171 701 50 585 b 322 -17 50 153 119 -17 b 575 200 524 -17 563 149 l 447 218 b 326 90 436 169 418 90 b 194 321 194 90 194 244 z m 197 417 b 319 597 204 510 233 597 b 425 514 347 597 403 583 b 438 417 438 474 438 443 z m 200 789 b 274 858 231 789 274 813 b 200 929 274 901 236 929 b 126 858 164 929 126 901 b 200 789 126 811 169 789 z m 417 789 b 490 858 447 789 490 813 b 417 929 490 901 453 929 b 343 858 379 929 343 900 b 417 789 343 814 385 789 z "},"è":{"ha":615,"x_min":0,"x_max":0,"o":"m 581 321 b 531 582 579 404 578 489 b 324 701 503 636 435 701 b 50 332 171 701 50 585 b 322 -17 50 153 119 -17 b 575 200 524 -17 563 149 l 447 218 b 326 90 436 169 418 90 b 194 321 194 90 194 244 z m 197 417 b 319 597 204 510 233 597 b 425 514 347 597 403 583 b 438 417 438 474 438 443 z m 413 819 l 196 1010 l 122 917 l 361 767 z "},"í":{"ha":308,"x_min":0,"x_max":0,"o":"m 83 685 l 83 0 l 225 0 l 225 685 z m 88 819 l 139 767 l 378 917 l 304 1010 z "},"î":{"ha":308,"x_min":0,"x_max":0,"o":"m 83 685 l 83 0 l 225 0 l 225 685 z m -87 782 l 32 772 l 154 854 l 276 772 l 396 782 l 154 968 z "},"ï":{"ha":308,"x_min":0,"x_max":0,"o":"m 83 685 l 83 0 l 225 0 l 225 685 z m 46 789 b 119 858 76 789 119 813 b 46 929 119 901 82 929 b -28 858 10 929 -28 901 b 46 789 -28 811 15 789 z m 263 789 b 336 858 293 789 336 813 b 263 929 336 901 299 929 b 189 858 225 929 189 900 b 263 789 189 814 231 789 z "},"ì":{"ha":308,"x_min":0,"x_max":0,"o":"m 83 685 l 83 0 l 225 0 l 225 685 z m 258 819 l 42 1010 l -32 917 l 207 767 z "},"ñ":{"ha":639,"x_min":0,"x_max":0,"o":"m 83 0 l 225 0 l 225 383 b 336 588 225 454 225 588 b 418 433 418 588 418 522 l 418 0 l 560 0 l 560 442 b 536 617 560 510 558 574 b 383 701 499 690 428 701 b 214 579 265 701 231 617 l 214 685 l 83 685 z m 471 929 b 410 878 458 907 440 878 b 335 907 393 878 375 883 b 247 936 290 931 274 936 b 110 833 193 936 153 904 l 167 794 b 233 844 186 821 203 844 b 303 817 249 844 264 839 b 390 786 349 790 368 786 b 529 890 467 786 510 858 z "},"ó":{"ha":639,"x_min":0,"x_max":0,"o":"m 321 701 b 50 343 96 701 50 508 b 318 -17 50 165 106 -17 b 589 350 551 -17 589 190 b 321 701 589 517 535 701 z m 319 594 b 439 343 400 594 439 519 b 319 90 439 160 399 90 b 200 342 240 90 200 163 b 319 594 200 508 233 594 z m 253 819 l 304 767 l 543 917 l 469 1010 z "},"ô":{"ha":639,"x_min":0,"x_max":0,"o":"m 321 701 b 50 343 96 701 50 508 b 318 -17 50 165 106 -17 b 589 350 551 -17 589 190 b 321 701 589 517 535 701 z m 319 594 b 439 343 400 594 439 519 b 319 90 439 160 399 90 b 200 342 240 90 200 163 b 319 594 200 508 233 594 z m 78 782 l 197 772 l 319 854 l 442 772 l 561 782 l 319 968 z "},"ö":{"ha":639,"x_min":0,"x_max":0,"o":"m 321 701 b 50 343 96 701 50 508 b 318 -17 50 165 106 -17 b 589 350 551 -17 589 190 b 321 701 589 517 535 701 z m 319 594 b 439 343 400 594 439 519 b 319 90 439 160 399 90 b 200 342 240 90 200 163 b 319 594 200 508 233 594 z m 211 789 b 285 858 242 789 285 813 b 211 929 285 901 247 929 b 138 858 175 929 138 901 b 211 789 138 811 181 789 z m 428 789 b 501 858 458 789 501 813 b 428 929 501 901 464 929 b 354 858 390 929 354 900 b 428 789 354 814 396 789 z "},"ò":{"ha":639,"x_min":0,"x_max":0,"o":"m 321 701 b 50 343 96 701 50 508 b 318 -17 50 165 106 -17 b 589 350 551 -17 589 190 b 321 701 589 517 535 701 z m 319 594 b 439 343 400 594 439 519 b 319 90 439 160 399 90 b 200 342 240 90 200 163 b 319 594 200 508 233 594 z m 424 819 l 207 1010 l 133 917 l 372 767 z "},"õ":{"ha":639,"x_min":0,"x_max":0,"o":"m 321 701 b 50 343 96 701 50 508 b 318 -17 50 165 106 -17 b 589 350 551 -17 589 190 b 321 701 589 517 535 701 z m 319 594 b 439 343 400 594 439 519 b 319 90 439 160 399 90 b 200 342 240 90 200 163 b 319 594 200 508 233 594 z m 471 929 b 410 878 458 907 440 878 b 335 907 393 878 375 883 b 247 936 290 931 274 936 b 110 833 193 936 153 904 l 167 794 b 233 844 186 821 203 844 b 303 817 249 844 264 839 b 390 786 349 790 368 786 b 529 890 467 786 510 858 z "},"š":{"ha":544,"x_min":0,"x_max":0,"o":"m 496 525 b 274 701 483 571 446 701 b 46 490 129 701 46 599 b 261 282 46 350 167 313 b 382 178 319 264 382 244 b 275 88 382 153 368 88 b 143 206 165 88 149 174 l 22 182 b 269 -17 32 132 58 -17 b 521 200 442 -17 521 94 b 318 406 521 339 400 379 b 181 513 224 436 181 450 b 269 597 181 557 211 597 b 385 494 351 597 375 525 z m 31 947 l 272 761 l 514 947 l 394 957 l 272 874 l 150 957 z "},"ú":{"ha":639,"x_min":0,"x_max":0,"o":"m 79 685 l 79 247 b 251 -17 79 133 79 -17 b 425 103 365 -17 400 53 l 425 0 l 556 0 l 556 685 l 414 685 l 414 356 b 300 97 414 229 414 97 b 221 250 221 97 221 154 l 221 685 z m 253 819 l 304 767 l 543 917 l 469 1010 z "},"û":{"ha":639,"x_min":0,"x_max":0,"o":"m 79 685 l 79 247 b 251 -17 79 133 79 -17 b 425 103 365 -17 400 53 l 425 0 l 556 0 l 556 685 l 414 685 l 414 356 b 300 97 414 229 414 97 b 221 250 221 97 221 154 l 221 685 z m 78 782 l 197 772 l 319 854 l 442 772 l 561 782 l 319 968 z "},"ü":{"ha":639,"x_min":0,"x_max":0,"o":"m 79 685 l 79 247 b 251 -17 79 133 79 -17 b 425 103 365 -17 400 53 l 425 0 l 556 0 l 556 685 l 414 685 l 414 356 b 300 97 414 229 414 97 b 221 250 221 97 221 154 l 221 685 z m 211 789 b 285 858 242 789 285 813 b 211 929 285 901 247 929 b 138 858 175 929 138 901 b 211 789 138 811 181 789 z m 428 789 b 501 858 458 789 501 813 b 428 929 501 901 464 929 b 354 858 390 929 354 900 b 428 789 354 814 396 789 z "},"ù":{"ha":639,"x_min":0,"x_max":0,"o":"m 79 685 l 79 247 b 251 -17 79 133 79 -17 b 425 103 365 -17 400 53 l 425 0 l 556 0 l 556 685 l 414 685 l 414 356 b 300 97 414 229 414 97 b 221 250 221 97 221 154 l 221 685 z m 424 819 l 207 1010 l 133 917 l 372 767 z "},"ý":{"ha":497,"x_min":0,"x_max":0,"o":"m 0 685 l 194 22 b 67 -128 161 -100 144 -128 b 17 -124 47 -128 33 -126 l 17 -237 b 90 -246 39 -242 57 -246 b 289 -43 225 -246 256 -150 l 511 685 l 383 685 l 261 215 l 142 685 z m 182 819 l 233 767 l 472 917 l 399 1010 z "},"ÿ":{"ha":497,"x_min":0,"x_max":0,"o":"m 0 685 l 194 22 b 67 -128 161 -100 144 -128 b 17 -124 47 -128 33 -126 l 17 -237 b 90 -246 39 -242 57 -246 b 289 -43 225 -246 256 -150 l 511 685 l 383 685 l 261 215 l 142 685 z m 140 789 b 214 858 171 789 214 813 b 140 929 214 901 176 929 b 67 858 104 929 67 901 b 140 789 67 811 110 789 z m 357 789 b 431 858 388 789 431 813 b 357 929 431 901 393 929 b 283 858 319 929 283 900 b 357 789 283 814 325 789 z "},"ž":{"ha":474,"x_min":0,"x_max":0,"o":"m 44 685 l 44 578 l 299 578 l 21 107 l 21 0 l 464 0 l 464 107 l 172 107 l 461 599 l 461 685 z m -4 947 l 238 761 l 479 947 l 360 957 l 238 874 l 115 957 z "},"ﬁ":{"ha":663,"x_min":0,"x_max":0,"o":"m 242 685 l 242 724 b 335 836 242 789 247 836 b 369 833 350 836 360 835 l 369 947 b 304 953 350 950 335 953 b 104 685 108 953 107 813 l 14 685 l 14 571 l 104 571 l 104 0 l 242 0 l 242 571 l 361 571 l 361 685 z m 438 685 l 438 0 l 579 0 l 579 685 z m 582 778 l 582 928 l 435 928 l 435 778 z "},"ﬂ":{"ha":663,"x_min":0,"x_max":0,"o":"m 242 685 l 242 724 b 335 836 242 789 247 836 b 369 833 350 836 360 835 l 369 947 b 304 953 350 950 335 953 b 104 685 108 953 107 813 l 14 685 l 14 571 l 104 571 l 104 0 l 242 0 l 242 571 l 361 571 l 361 685 z m 438 926 l 438 0 l 579 0 l 579 926 z "},"¹":{"ha":474,"x_min":0,"x_max":0,"o":"m 236 932 b 104 826 181 865 131 840 l 104 724 b 208 792 153 747 169 758 l 208 456 l 107 456 l 107 371 l 415 371 l 415 456 l 321 456 l 321 932 z "},"²":{"ha":474,"x_min":0,"x_max":0,"o":"m 138 733 b 222 844 142 767 150 844 b 293 764 274 844 293 804 b 256 668 293 726 275 692 b 33 461 197 593 89 507 l 33 371 l 413 371 l 418 468 l 168 468 b 313 581 244 517 301 569 b 414 769 351 617 414 679 b 229 936 414 853 357 936 b 31 754 68 936 40 803 z "},"³":{"ha":474,"x_min":0,"x_max":0,"o":"m 136 768 b 219 850 144 801 158 850 b 289 774 246 850 289 843 b 194 699 289 699 229 699 l 149 699 l 149 618 l 194 618 b 300 535 239 618 300 613 b 218 450 300 465 250 450 b 122 543 142 450 129 513 l 19 521 b 222 361 28 481 51 361 b 422 529 342 361 422 428 b 321 664 422 629 349 654 b 406 785 349 678 406 704 b 229 936 406 875 340 936 b 35 790 78 936 46 829 z "},"∆":{"ha":833,"x_min":0,"x_max":0,"o":"m 38 0 l 794 0 l 794 86 l 499 947 l 342 947 l 38 83 z m 174 110 l 342 569 b 413 792 363 643 401 743 l 417 792 b 494 550 432 732 474 621 l 653 110 z "},"Ω":{"ha":906,"x_min":0,"x_max":0,"o":"m 235 110 l 54 110 l 54 0 l 376 0 l 376 81 b 207 481 290 138 207 286 b 454 825 207 676 303 825 b 696 486 614 825 696 654 b 528 81 696 275 613 140 l 528 0 l 849 0 l 849 110 l 667 110 l 667 114 b 831 514 749 190 831 333 b 456 939 831 725 694 939 b 72 506 232 939 72 751 b 235 114 72 331 150 194 z "},"μ":{"ha":639,"x_min":0,"x_max":0,"o":"m 414 685 l 414 356 b 397 153 414 260 413 192 b 317 97 383 121 357 97 b 239 153 279 97 253 119 b 221 356 222 190 221 246 l 221 685 l 79 685 l 79 -232 l 210 -232 l 210 103 b 317 -17 219 57 238 -17 b 425 103 397 -17 414 57 l 425 0 l 556 0 l 556 685 z "},"π":{"ha":751,"x_min":0,"x_max":0,"o":"m 719 576 l 729 692 l 207 692 b 10 651 103 692 42 675 l 26 561 b 158 576 53 571 89 576 b 72 0 154 417 118 151 l 203 0 b 290 576 249 135 283 421 l 490 576 l 490 186 b 511 0 490 86 499 25 l 642 0 b 624 193 631 39 624 92 l 624 576 z "},"€":{"ha":710,"x_min":0,"x_max":0,"o":"m 701 682 b 433 943 669 853 594 943 b 131 600 256 943 157 824 l 33 600 l 19 515 l 125 515 b 124 464 125 499 124 482 l 124 425 l 33 425 l 19 340 l 129 340 b 413 -17 150 103 256 -17 b 699 236 558 -17 656 39 l 569 256 b 433 97 546 128 494 97 b 286 340 343 97 299 174 l 474 340 l 488 425 l 282 425 l 282 456 b 283 515 282 476 283 496 l 503 515 l 517 600 l 288 600 b 433 829 301 763 344 829 b 571 661 532 829 553 747 z "},"ℓ":{"ha":640,"x_min":0,"x_max":0,"o":"m 557 218 b 390 96 524 160 464 96 b 265 271 322 96 267 149 l 265 324 b 521 793 421 479 521 633 b 353 1018 521 919 468 1018 b 138 693 240 1018 138 928 l 138 344 b 33 253 106 313 71 286 l 68 179 b 138 236 92 197 117 219 b 139 221 139 231 139 225 b 361 -11 147 96 208 -11 b 614 163 463 -11 553 40 z m 265 694 b 357 919 265 867 314 919 b 436 797 415 919 436 872 b 265 451 436 686 363 565 z "},"℮":{"ha":1157,"x_min":0,"x_max":0,"o":"m 1111 450 l 1111 463 b 578 943 1111 728 872 943 b 44 463 283 943 44 728 b 578 -15 44 199 283 -15 b 999 169 749 -15 904 58 l 922 169 b 579 11 839 74 717 11 b 251 153 451 11 336 67 b 240 183 244 161 240 171 l 240 444 b 247 450 240 449 243 450 z m 915 483 b 910 475 915 481 914 475 l 247 475 b 240 483 243 475 240 481 l 240 740 b 253 774 240 754 244 765 b 579 914 338 858 453 914 b 903 778 706 914 818 860 b 915 746 911 769 915 758 z "},"∂":{"ha":719,"x_min":0,"x_max":0,"o":"m 132 865 b 300 929 167 896 222 929 b 525 581 431 929 525 775 b 524 531 525 568 525 543 l 522 531 b 326 642 503 567 436 642 b 51 299 179 642 51 510 b 308 -11 51 150 135 -11 b 656 540 532 -11 656 214 b 317 1042 656 879 493 1042 b 92 967 204 1042 133 1000 z m 321 103 b 183 294 238 103 183 185 b 351 533 183 422 256 533 b 511 410 439 533 496 458 b 322 103 496 258 429 103 z "},"∏":{"ha":910,"x_min":0,"x_max":0,"o":"m 876 801 l 876 925 l 33 925 l 33 801 l 167 801 l 167 -128 l 299 -128 l 299 801 l 611 801 l 611 -128 l 743 -128 l 743 801 z "},"∑":{"ha":710,"x_min":0,"x_max":0,"o":"m 683 -128 l 683 0 l 194 0 l 194 3 l 506 421 l 222 806 l 222 810 l 664 810 l 664 925 l 43 925 l 43 831 l 354 399 l 31 -39 l 31 -128 z "},"∙":{"ha":332,"x_min":0,"x_max":0,"o":"m 89 444 l 89 269 l 243 269 l 243 444 z "},"√":{"ha":750,"x_min":0,"x_max":0,"o":"m 753 1106 l 658 1106 l 432 81 b 414 -32 424 39 418 -4 l 411 -31 b 388 76 406 -3 396 38 l 243 526 l 43 446 l 65 368 l 161 406 l 357 -190 l 468 -190 z "},"∞":{"ha":1008,"x_min":0,"x_max":0,"o":"m 943 383 b 749 592 943 508 861 592 b 510 443 635 592 569 510 b 274 592 442 526 371 592 b 64 376 153 592 64 503 b 263 165 64 254 157 165 b 506 315 368 165 438 235 b 740 165 594 207 661 165 b 943 382 844 165 943 247 z m 274 243 b 143 375 197 243 144 303 b 267 517 143 454 189 517 b 463 374 356 517 407 444 b 275 243 411 315 353 243 z m 740 517 b 864 376 813 517 864 461 b 743 243 864 314 821 243 b 550 381 676 243 632 285 b 739 517 593 428 656 517 z "},"∫":{"ha":492,"x_min":0,"x_max":0,"o":"m 464 1121 b 389 1138 449 1129 418 1138 b 250 1081 338 1138 285 1119 b 178 790 197 1024 178 940 b 196 126 178 572 196 357 b 157 -89 196 0 181 -57 b 99 -117 143 -108 121 -117 b 43 -103 75 -117 54 -108 l 24 -200 b 115 -221 40 -210 78 -221 b 265 -139 174 -221 233 -197 b 315 128 294 -89 315 -6 b 297 778 315 356 297 567 b 336 1007 297 896 307 969 b 401 1040 353 1031 378 1040 b 447 1028 418 1040 435 1033 z "},"≈":{"ha":713,"x_min":0,"x_max":0,"o":"m 608 582 b 490 486 574 522 542 486 b 375 532 449 486 419 507 b 235 582 342 551 297 582 b 53 453 157 582 92 529 l 104 408 b 226 504 136 457 168 504 b 342 460 268 504 303 483 b 488 407 401 425 436 407 b 658 538 564 407 621 464 z m 608 349 b 490 254 572 290 542 254 b 374 301 447 254 417 278 b 235 350 340 319 299 350 b 53 221 158 350 92 297 l 104 176 b 226 272 135 225 168 272 b 342 228 268 272 301 253 b 488 175 400 193 436 175 b 658 304 564 175 621 232 z "},"≠":{"ha":713,"x_min":0,"x_max":0,"o":"m 517 668 l 453 694 l 388 547 l 64 547 l 64 467 l 357 467 l 276 285 l 64 285 l 64 204 l 246 204 l 190 82 l 254 54 l 321 204 l 649 204 l 649 285 l 351 285 l 432 467 l 649 467 l 649 547 l 463 547 z "},"≤":{"ha":713,"x_min":0,"x_max":0,"o":"m 646 131 l 646 226 l 153 465 l 153 468 l 644 706 l 644 801 l 71 510 l 71 422 z m 650 -3 l 650 79 l 64 79 l 64 -3 z "},"≥":{"ha":713,"x_min":0,"x_max":0,"o":"m 72 801 l 72 706 l 565 468 l 565 465 l 72 226 l 72 131 l 647 422 l 647 510 z m 649 -3 l 649 79 l 65 79 l 65 -3 z "},"◊":{"ha":750,"x_min":0,"x_max":0,"o":"m 682 461 l 431 986 l 324 986 l 68 461 l 318 -61 l 425 -61 z m 563 458 l 399 121 b 376 49 392 106 381 68 l 371 49 b 349 122 368 67 360 96 l 186 465 l 347 796 b 372 874 358 822 367 850 l 376 874 b 401 796 382 851 392 821 z "}," ":{"ha":347,"x_min":0,"x_max":0,"o":""},"­":{"ha":403,"x_min":0,"x_max":0,"o":"m 54 404 l 54 290 l 347 290 l 347 404 z "},"ˉ":{"ha":694,"x_min":0,"x_max":0,"o":"m 160 903 l 160 814 l 535 814 l 535 903 z "},"∕":{"ha":118,"x_min":0,"x_max":0,"o":"m 235 926 l -217 0 l -117 0 l 335 926 z "},"Ω":{"ha":906,"x_min":0,"x_max":0,"o":"m 235 110 l 54 110 l 54 0 l 376 0 l 376 81 b 207 481 290 138 207 286 b 454 825 207 676 303 825 b 696 486 614 825 696 654 b 528 81 696 275 613 140 l 528 0 l 849 0 l 849 110 l 667 110 l 667 114 b 831 514 749 190 831 333 b 456 939 831 725 694 939 b 72 506 232 939 72 751 b 235 114 72 331 150 194 z "}}}
